<svg width="25" height="24" viewBox="0 0 25 24" fill="none" xmlns="http://www.w3.org/2000/svg">
<path d="M22.4321 17.5087C22.9504 16.4338 23.2046 15.2508 23.1738 14.058C23.143 12.8651 22.8281 11.6968 22.2551 10.6501C21.6821 9.60341 20.8676 8.70854 19.8793 8.03984C18.891 7.37113 17.7575 6.94789 16.5728 6.80527C16.1785 5.88873 15.6054 5.06007 14.887 4.36779C14.1685 3.67551 13.3192 3.13353 12.3887 2.7736C11.4581 2.41367 10.4651 2.24302 9.46784 2.27164C8.47054 2.30026 7.48898 2.52758 6.58062 2.94028C5.67227 3.35298 4.85539 3.94277 4.17782 4.67511C3.50025 5.40745 2.97561 6.26762 2.63461 7.20525C2.29362 8.14288 2.14314 9.13912 2.19197 10.1356C2.2408 11.1321 2.48797 12.1089 2.919 13.0087L2.23744 15.3253C2.16123 15.5839 2.15614 15.8582 2.22269 16.1195C2.28924 16.3808 2.42497 16.6193 2.61561 16.8099C2.80625 17.0005 3.04474 17.1363 3.30601 17.2028C3.56727 17.2694 3.84164 17.2643 4.10025 17.1881L6.41681 16.5065C7.16065 16.8639 7.95814 17.0967 8.77744 17.1956C9.17548 18.1282 9.75851 18.9704 10.4913 19.6713C11.2241 20.3723 12.0914 20.9173 13.0407 21.2735C13.9901 21.6297 15.0019 21.7897 16.0149 21.7438C17.0279 21.698 18.021 21.4471 18.9343 21.0065L21.2509 21.6881C21.5094 21.7642 21.7836 21.7693 22.0448 21.7027C22.3059 21.6362 22.5443 21.5006 22.7349 21.3101C22.9255 21.1196 23.0613 20.8812 23.128 20.6201C23.1946 20.359 23.1897 20.0848 23.1137 19.8262L22.4321 17.5087ZM20.9087 17.6465L21.6756 20.25L19.0731 19.484C18.885 19.4295 18.6832 19.4507 18.5106 19.5431C17.1295 20.2805 15.5149 20.4494 14.0111 20.0137C12.5073 19.578 11.2332 18.5721 10.4602 17.2106C11.4872 17.1034 12.4809 16.7852 13.379 16.2758C14.2771 15.7665 15.0603 15.077 15.6793 14.2507C16.2984 13.4244 16.7401 12.4791 16.9766 11.4741C17.2131 10.469 17.2393 9.42593 17.0537 8.41027C17.9484 8.62117 18.7827 9.03485 19.4922 9.61936C20.2017 10.2039 20.7674 10.9436 21.1457 11.7814C21.5239 12.6193 21.7046 13.5328 21.6737 14.4516C21.6429 15.3703 21.4013 16.2697 20.9677 17.0803C20.8744 17.2539 20.8532 17.4573 20.9087 17.6465Z" fill="black" style="fill:black;fill-opacity:1;"/>
</svg>
