<svg width="24" height="25" viewBox="0 0 24 25" fill="none" xmlns="http://www.w3.org/2000/svg">
<path d="M5 19.4252H6.425L16.2 9.65017L14.775 8.22517L5 18.0002V19.4252ZM4 21.4252C3.71667 21.4252 3.47917 21.3293 3.2875 21.1377C3.09583 20.946 3 20.7085 3 20.4252V18.0002C3 17.7335 3.05 17.4793 3.15 17.2377C3.25 16.996 3.39167 16.7835 3.575 16.6002L16.2 4.00017C16.4 3.81684 16.6208 3.67517 16.8625 3.57517C17.1042 3.47517 17.3583 3.42517 17.625 3.42517C17.8917 3.42517 18.15 3.47517 18.4 3.57517C18.65 3.67517 18.8667 3.82517 19.05 4.02517L20.425 5.42517C20.625 5.6085 20.7708 5.82517 20.8625 6.07517C20.9542 6.32517 21 6.57517 21 6.82517C21 7.09184 20.9542 7.346 20.8625 7.58767C20.7708 7.82934 20.625 8.05017 20.425 8.25017L7.825 20.8502C7.64167 21.0335 7.42917 21.1752 7.1875 21.2752C6.94583 21.3752 6.69167 21.4252 6.425 21.4252H4ZM15.475 8.95017L14.775 8.22517L16.2 9.65017L15.475 8.95017Z" fill="#737373" style="fill:#737373;fill:color(display-p3 0.4490 0.4490 0.4490);fill-opacity:1;"/>
</svg>
