<svg width="40" height="41" viewBox="0 0 40 41" fill="none" xmlns="http://www.w3.org/2000/svg">
<path d="M12.6492 20.7166C12.6492 22.0973 11.5299 23.2166 10.1492 23.2166C8.76846 23.2166 7.64917 22.0973 7.64917 20.7166C7.64917 19.3358 8.76846 18.2166 10.1492 18.2166C11.5299 18.2166 12.6492 19.3358 12.6492 20.7166Z" fill="#A4A4A4" style="fill:#A4A4A4;fill:color(display-p3 0.6413 0.6413 0.6413);fill-opacity:1;"/>
<path d="M22.6492 20.7166C22.6492 22.0973 21.5299 23.2166 20.1492 23.2166C18.7685 23.2166 17.6492 22.0973 17.6492 20.7166C17.6492 19.3358 18.7685 18.2166 20.1492 18.2166C21.5299 18.2166 22.6492 19.3358 22.6492 20.7166Z" fill="#A4A4A4" style="fill:#A4A4A4;fill:color(display-p3 0.6413 0.6413 0.6413);fill-opacity:1;"/>
<path d="M32.6492 20.7166C32.6492 22.0973 31.5299 23.2166 30.1492 23.2166C28.7685 23.2166 27.6492 22.0973 27.6492 20.7166C27.6492 19.3358 28.7685 18.2166 30.1492 18.2166C31.5299 18.2166 32.6492 19.3358 32.6492 20.7166Z" fill="#A4A4A4" style="fill:#A4A4A4;fill:color(display-p3 0.6413 0.6413 0.6413);fill-opacity:1;"/>
</svg>
