<svg width="17" height="17" viewBox="0 0 17 17" fill="none" xmlns="http://www.w3.org/2000/svg">
<path d="M14.75 8.66699C14.75 8.8659 14.671 9.05667 14.5303 9.19732C14.3897 9.33797 14.1989 9.41699 14 9.41699H9.25V14.167C9.25 14.3659 9.17098 14.5567 9.03033 14.6973C8.88968 14.838 8.69891 14.917 8.5 14.917C8.30109 14.917 8.11032 14.838 7.96967 14.6973C7.82902 14.5567 7.75 14.3659 7.75 14.167V9.41699H3C2.80109 9.41699 2.61032 9.33797 2.46967 9.19732C2.32902 9.05667 2.25 8.8659 2.25 8.66699C2.25 8.46808 2.32902 8.27731 2.46967 8.13666C2.61032 7.99601 2.80109 7.91699 3 7.91699H7.75V3.16699C7.75 2.96808 7.82902 2.77731 7.96967 2.63666C8.11032 2.49601 8.30109 2.41699 8.5 2.41699C8.69891 2.41699 8.88968 2.49601 9.03033 2.63666C9.17098 2.77731 9.25 2.96808 9.25 3.16699V7.91699H14C14.1989 7.91699 14.3897 7.99601 14.5303 8.13666C14.671 8.27731 14.75 8.46808 14.75 8.66699Z" fill="#6C737F" style="fill:#6C737F;fill:color(display-p3 0.4239 0.4510 0.4976);fill-opacity:1;"/>
</svg>
