<svg width="25" height="24" viewBox="0 0 24 24" fill="none" xmlns="http://www.w3.org/2000/svg">
<path d="M6.68704 13.8561C6.68958 13.9069 6.68177 13.9577 6.66406 14.0054C6.64636 14.0531 6.61914 14.0967 6.58406 14.1335C6.54898 14.1704 6.50678 14.1997 6.46001 14.2197C6.41325 14.2397 6.36291 14.25 6.31204 14.2499H2.17579C2.00651 14.2502 1.84212 14.1931 1.70936 14.0881C1.5766 13.9831 1.48326 13.8363 1.44454 13.6715C1.42043 13.5587 1.42154 13.4419 1.4478 13.3296C1.47405 13.2173 1.5248 13.1122 1.59642 13.0218C2.25811 12.1443 3.13606 11.4533 4.14454 11.0165C3.70178 10.6128 3.3622 10.1089 3.15424 9.54696C2.94627 8.98505 2.87598 8.38149 2.94924 7.78682C3.02251 7.19216 3.23719 6.6237 3.57533 6.12907C3.91346 5.63444 4.36519 5.22803 4.89269 4.94388C5.42019 4.65973 6.0081 4.50612 6.60717 4.49591C7.20625 4.48569 7.79905 4.61918 8.33593 4.88518C8.87281 5.15118 9.33813 5.54195 9.69293 6.02477C10.0477 6.50758 10.2817 7.06839 10.3752 7.66021C10.3872 7.7398 10.373 7.82115 10.3346 7.89189C10.2962 7.96262 10.2357 8.01888 10.1624 8.05209C9.1221 8.533 8.2411 9.30144 7.62333 10.2667C7.00555 11.232 6.67678 12.3539 6.67579 13.4999C6.67579 13.6199 6.67579 13.738 6.68704 13.8561ZM23.7495 13.0208C23.0894 12.1443 22.2134 11.4538 21.207 11.0165C21.6498 10.6128 21.9894 10.1089 22.1973 9.54696C22.4053 8.98505 22.4756 8.38149 22.4023 7.78682C22.3291 7.19216 22.1144 6.6237 21.7763 6.12907C21.4381 5.63444 20.9864 5.22803 20.4589 4.94388C19.9314 4.65973 19.3435 4.50612 18.7444 4.49591C18.1453 4.48569 17.5525 4.61918 17.0157 4.88518C16.4788 5.15118 16.0134 5.54195 15.6586 6.02477C15.3039 6.50758 15.0699 7.06839 14.9764 7.66021C14.9643 7.7398 14.9786 7.82115 15.017 7.89189C15.0554 7.96262 15.1159 8.01888 15.1892 8.05209C16.2295 8.533 17.1105 9.30144 17.7283 10.2667C18.346 11.232 18.6748 12.3539 18.6758 13.4999C18.6758 13.6199 18.6758 13.738 18.6645 13.8561C18.662 13.9069 18.6698 13.9577 18.6875 14.0054C18.7052 14.0531 18.7324 14.0967 18.7675 14.1335C18.8026 14.1704 18.8448 14.1997 18.8916 14.2197C18.9383 14.2397 18.9887 14.25 19.0395 14.2499H23.1758C23.3451 14.2502 23.5095 14.1931 23.6422 14.0881C23.775 13.9831 23.8683 13.8363 23.907 13.6715C23.9313 13.5585 23.9302 13.4415 23.9037 13.329C23.8773 13.2165 23.8263 13.1112 23.7542 13.0208H23.7495ZM15.4058 17.069C16.1526 16.4971 16.7013 15.7055 16.975 14.8056C17.2487 13.9057 17.2335 12.9427 16.9316 12.0518C16.6296 11.161 16.0561 10.3872 15.2917 9.83912C14.5273 9.29106 13.6103 8.99632 12.6697 8.99632C11.7291 8.99632 10.8121 9.29106 10.0477 9.83912C9.28326 10.3872 8.70977 11.161 8.40784 12.0518C8.10591 12.9427 8.09071 13.9057 8.36438 14.8056C8.63805 15.7055 9.18684 16.4971 9.9336 17.069C8.60848 17.6431 7.50198 18.6264 6.7761 19.8749C6.71027 19.9889 6.67562 20.1183 6.67562 20.2499C6.67563 20.3816 6.7103 20.511 6.77615 20.625C6.84199 20.739 6.93669 20.8337 7.05073 20.8995C7.16477 20.9653 7.29412 20.9999 7.42579 20.9999H17.9258C18.0575 20.9999 18.1868 20.9653 18.3008 20.8995C18.4149 20.8337 18.5096 20.739 18.5754 20.625C18.6413 20.511 18.676 20.3816 18.676 20.2499C18.676 20.1183 18.6413 19.9889 18.5755 19.8749C17.848 18.6256 16.7395 17.6422 15.4124 17.069H15.4058Z" fill="black" style="fill:black;fill-opacity:1;"/>
</svg>
