<svg width="25" height="24" viewBox="0 0 25 24" fill="none" xmlns="http://www.w3.org/2000/svg">
<g clip-path="url(#clip0_53_4919)">
<path d="M16.0947 18.3404C16.1685 18.4536 16.2103 18.5845 16.2158 18.7195C16.2213 18.8545 16.1903 18.9885 16.1259 19.1073C16.0616 19.2261 15.9664 19.3253 15.8503 19.3944C15.7342 19.4636 15.6016 19.5001 15.4665 19.5001H1.63467C1.49958 19.5001 1.36699 19.4636 1.25093 19.3944C1.13486 19.3253 1.03963 19.2261 0.975287 19.1073C0.910946 18.9885 0.879886 18.8545 0.885388 18.7195C0.890891 18.5845 0.932752 18.4536 1.00655 18.3404C2.06227 16.7154 3.61514 15.4752 5.43342 14.8051C4.42823 14.1359 3.66509 13.161 3.25683 12.0245C2.84857 10.888 2.81688 9.65036 3.16645 8.49449C3.51601 7.33862 4.22827 6.32593 5.1979 5.60617C6.16752 4.88642 7.34304 4.4978 8.55061 4.4978C9.75818 4.4978 10.9337 4.88642 11.9033 5.60617C12.873 6.32593 13.5852 7.33862 13.9348 8.49449C14.2843 9.65036 14.2527 10.888 13.8444 12.0245C13.4361 13.161 12.673 14.1359 11.6678 14.8051C13.4861 15.4752 15.039 16.7154 16.0947 18.3404ZM24.3362 18.3263C23.2802 16.7081 21.7308 15.4734 19.9178 14.8051C21.1045 14.0057 21.9419 12.7842 22.2597 11.3892C22.5775 9.99411 22.3517 8.53038 21.6284 7.29592C20.905 6.06146 19.7384 5.14906 18.366 4.74443C16.9936 4.33979 15.5186 4.47334 14.2412 5.1179C14.1924 5.14312 14.1497 5.17877 14.1162 5.22232C14.0826 5.26588 14.0591 5.31628 14.0472 5.36995C14.0353 5.42362 14.0353 5.47925 14.0473 5.53289C14.0593 5.58654 14.0829 5.6369 14.1165 5.6804C15.0664 6.86522 15.6119 8.32306 15.6731 9.84038C15.7344 11.3577 15.3081 12.8548 14.4569 14.1123C14.4018 14.1945 14.3815 14.295 14.4003 14.3921C14.4191 14.4892 14.4755 14.575 14.5572 14.6307C15.6671 15.4053 16.6172 16.3867 17.3556 17.521C17.6534 17.9771 17.775 18.5259 17.6978 19.0651C17.6891 19.1187 17.6922 19.1736 17.7068 19.2259C17.7214 19.2783 17.7472 19.3268 17.7824 19.3682C17.8176 19.4095 17.8614 19.4428 17.9108 19.4655C17.9601 19.4883 18.0138 19.5001 18.0681 19.5001H23.7212C23.8864 19.5001 24.0469 19.4457 24.178 19.3452C24.309 19.2446 24.4032 19.1037 24.4459 18.9441C24.472 18.8392 24.4757 18.73 24.4568 18.6236C24.4379 18.5171 24.3968 18.4159 24.3362 18.3263Z" fill="black" style="fill:black;fill-opacity:1;"/>
</g>
<defs>
<clipPath id="clip0_53_4919">
<rect width="24" height="24" fill="white" style="fill:white;fill-opacity:1;" transform="translate(0.675781)"/>
</clipPath>
</defs>
</svg>
