<svg width="19" height="19" viewBox="0 0 19 19" fill="none" xmlns="http://www.w3.org/2000/svg">
<path d="M9.8085 3.42517C11.9547 3.42517 13.7049 4.37344 15.0014 5.45544C16.296 6.53596 17.1833 7.78593 17.6278 8.48987C17.7066 8.61452 17.8135 8.77356 17.8805 8.99231L17.9069 9.08972L17.9333 9.25232C17.9508 9.42165 17.9419 9.6077 17.9069 9.76062C17.8449 10.0307 17.7178 10.218 17.6278 10.3605C17.1833 11.0644 16.296 12.3144 15.0014 13.3949C13.7049 14.4769 11.9547 15.4252 9.8085 15.4252C7.66247 15.4251 5.91273 14.4768 4.61636 13.3949C3.32167 12.3143 2.43372 11.0644 1.98916 10.3605C1.8992 10.218 1.77279 10.0306 1.71084 9.76062C1.66409 9.55665 1.66409 9.29369 1.71084 9.08972C1.77279 8.81977 1.8992 8.63231 1.98916 8.48987C2.43372 7.78595 3.32167 6.53601 4.61636 5.45544C5.91273 4.37351 7.66247 3.42526 9.8085 3.42517ZM9.8085 4.92517C8.12613 4.92526 6.70519 5.6662 5.5773 6.60754C4.44785 7.55025 3.65724 8.65784 3.25772 9.29041C3.23121 9.33238 3.21242 9.3623 3.19693 9.38782C3.18673 9.40462 3.18018 9.41635 3.17569 9.42444V9.42517C3.18018 9.43328 3.18649 9.44533 3.19693 9.46252C3.21242 9.48804 3.23121 9.51797 3.25772 9.55994C3.65724 10.1925 4.44785 11.3001 5.5773 12.2428C6.70519 13.1841 8.12613 13.9251 9.8085 13.9252C11.491 13.9252 12.9125 13.1842 14.0404 12.2428C15.1699 11.3001 15.9605 10.1925 16.36 9.55994C16.3865 9.51799 16.4046 9.48803 16.4201 9.46252C16.4305 9.44538 16.4368 9.43331 16.4413 9.42517C16.4368 9.41703 16.4305 9.40496 16.4201 9.38782C16.4046 9.36231 16.3865 9.33235 16.36 9.29041C15.9605 8.65786 15.1699 7.55027 14.0404 6.60754C12.9125 5.66614 11.491 4.92517 9.8085 4.92517ZM11.3085 9.42517C11.3085 8.59674 10.6369 7.92517 9.8085 7.92517C8.98021 7.92533 8.3085 8.59684 8.3085 9.42517C8.3085 10.2535 8.98021 10.925 9.8085 10.9252C10.6369 10.9252 11.3085 10.2536 11.3085 9.42517ZM3.17642 9.44348V9.44202L3.17569 9.44055C3.17577 9.4418 3.17635 9.44276 3.17642 9.44348ZM12.8085 9.42517C12.8085 11.082 11.4654 12.4252 9.8085 12.4252C8.15179 12.425 6.8085 11.0819 6.8085 9.42517C6.8085 7.76842 8.15179 6.42533 9.8085 6.42517C11.4654 6.42517 12.8085 7.76832 12.8085 9.42517Z" fill="#333333" style="fill:#333333;fill:color(display-p3 0.2000 0.2000 0.2000);fill-opacity:1;"/>
</svg>
