<svg width="753" height="431" viewBox="0 0 753 431" fill="none" xmlns="http://www.w3.org/2000/svg">
<g clip-path="url(#clip0_53_3801)">
<path d="M678.918 314.861C707.895 314.861 731.386 338.352 731.386 367.329V430.128H678.918V314.861Z" fill="#B8D5F6" style="fill:#B8D5F6;fill:color(display-p3 0.7216 0.8353 0.9647);fill-opacity:1;"/>
<circle cx="232.133" cy="427.42" r="127.162" fill="#B8D5F6" style="fill:#B8D5F6;fill:color(display-p3 0.7204 0.8337 0.9642);fill-opacity:1;"/>
<circle cx="371.076" cy="305.607" r="179.47" fill="#6AACF8" style="fill:#6AACF8;fill:color(display-p3 0.4157 0.6745 0.9725);fill-opacity:1;"/>
<path d="M201.039 397.555L180.358 285.118C179.115 278.36 184.304 272.128 191.177 272.128H344.896C350.204 272.128 354.755 275.919 355.715 281.139L376.396 393.576C377.639 400.334 372.449 406.566 365.577 406.566H211.857C206.55 406.566 201.999 402.776 201.039 397.555Z" fill="#081E34" style="fill:#081E34;fill:color(display-p3 0.0314 0.1176 0.2039);fill-opacity:1;"/>
<path d="M211.386 396.82L191.166 286.889C190.714 284.431 192.601 282.165 195.1 282.165H341.434C343.364 282.165 345.019 283.543 345.368 285.442L365.588 395.373C366.04 397.83 364.153 400.096 361.654 400.096H215.32C213.389 400.096 211.735 398.718 211.386 396.82Z" fill="#70BAFF" style="fill:#70BAFF;fill:color(display-p3 0.4400 0.7293 1.0000);fill-opacity:1;"/>
<path d="M273.9 360.339C256.761 363.144 249.629 374.926 248.205 380.466L242.435 395.235L323.134 390.389C320.353 362.542 295.324 356.834 273.9 360.339Z" fill="#48A0B9" style="fill:#48A0B9;fill:color(display-p3 0.2824 0.6275 0.7255);fill-opacity:1;"/>
<path d="M277.34 316.032C263.411 316.868 265.936 332.434 268.768 339.568L273.063 341.806C280.291 340.54 295.432 337.412 298.174 335.028C301.601 332.049 302.308 325.349 301.523 321.513C300.895 318.445 297.834 318.591 296.382 319.048C296.506 318.024 296.225 315.508 294.116 313.637C289.247 310.158 280.903 313.784 277.34 316.032Z" fill="#1F2A37" style="fill:#1F2A37;fill:color(display-p3 0.1231 0.1641 0.2142);fill-opacity:1;"/>
<path d="M294.487 324.432C291.547 326.273 286.327 325.57 283.985 325.063C283.424 324.949 278.486 321.233 278.265 326.793C278.044 332.354 275.905 338.307 275.419 339.446C275.03 340.357 274.531 340.054 274.33 339.788C271.041 335.825 267.564 337.976 267.421 340.203C266.634 345.576 271.021 346.274 273.313 345.952C273.183 349.935 272.896 358.402 272.795 360.406C272.693 362.409 275.335 364.229 276.669 364.888C286.558 367.9 289.634 363.693 290.388 362.4C291.143 361.107 291.495 359.283 291.521 358.172C296.266 355.89 297.791 348.642 297.96 345.303C298.523 340.832 297.428 322.591 294.487 324.432Z" fill="#E7B39E" style="fill:#E7B39E;fill:color(display-p3 0.9060 0.7022 0.6206);fill-opacity:1;"/>
<path d="M233.224 348.082C230.544 347.799 236.711 363.035 240.129 370.688C242.622 370.631 248.03 370.158 249.719 368.726C251.83 366.935 254.698 359.274 255.411 357.289C256.124 355.305 255.781 354.216 254.919 353.713C254.057 353.21 251.962 355.277 251.249 357.262C250.679 358.849 249.961 358.911 249.674 358.743L248.424 347.169C248.45 346.058 248.16 343.69 246.793 343.106C245.427 342.523 244.986 349.964 244.937 353.758L243.007 344.721C242.548 341.697 241.962 341.178 240.873 341.52C239.785 341.863 240.448 348.295 240.935 351.779L239.514 346.595C238.779 343.588 238.436 342.499 237.071 342.858C235.705 343.218 237.27 350.797 238.061 354.725C237.567 354.2 236.446 352.77 235.91 351.249C235.241 349.347 234.053 348.032 233.224 348.082Z" fill="#E7B39E" style="fill:#E7B39E;fill:color(display-p3 0.9060 0.7022 0.6206);fill-opacity:1;"/>
<path d="M252.297 368.571L239.308 369.351C237.716 376.103 237.3 389.811 237.292 395.821L256.085 394.693C256.15 384.704 253.587 373.116 252.297 368.571Z" fill="#377C90" style="fill:#377C90;fill:color(display-p3 0.2158 0.4871 0.5642);fill-opacity:1;"/>
<path d="M251.377 368.626L238.388 369.406C236.796 376.158 236.381 389.867 236.372 395.877L255.165 394.748C255.23 384.759 252.667 373.171 251.377 368.626Z" fill="#48A0B9" style="fill:#48A0B9;fill:color(display-p3 0.2824 0.6275 0.7255);fill-opacity:1;"/>
<path d="M283.153 349.616C283.429 349.398 283.829 349.444 284.048 349.72C284.559 350.364 286.642 351.748 290.334 350.48C290.667 350.366 291.029 350.543 291.143 350.875C291.258 351.208 291.08 351.57 290.748 351.685C286.614 353.105 283.939 351.632 283.05 350.511C282.831 350.235 282.878 349.835 283.153 349.616Z" fill="#C96542" style="fill:#C96542;fill:color(display-p3 0.7877 0.3955 0.2603);fill-opacity:1;"/>
<path d="M288.917 337.254C289.644 339.064 291.187 342.575 291.52 344.539C291.657 345.344 291.26 346.105 290.56 346.484C289.982 346.798 289.165 347.141 288.176 347.344L287.953 346.259C288.822 346.081 289.536 345.779 290.033 345.51C290.334 345.347 290.482 345.042 290.428 344.724C290.118 342.896 289.002 339.34 288.269 337.514L288.917 337.254Z" fill="#1F2A37" style="fill:#1F2A37;fill:color(display-p3 0.1216 0.1647 0.2157);fill-opacity:1;"/>
<path d="M279.982 336.269L279.869 336.075C279.732 335.836 279.79 335.529 280.016 335.371C282.274 333.789 284.023 334.23 284.855 334.813C285.04 334.942 285.082 335.185 284.994 335.392L284.923 335.559C284.784 335.883 284.372 335.998 284.029 335.917C283.013 335.677 281.638 336.098 280.728 336.5C280.456 336.62 280.13 336.527 279.982 336.269Z" fill="#1F2A37" style="fill:#1F2A37;fill:color(display-p3 0.1231 0.1641 0.2142);fill-opacity:1;"/>
<path d="M295.663 335.399L295.751 335.192C295.859 334.939 295.764 334.642 295.521 334.512C293.091 333.211 291.407 333.859 290.65 334.537C290.482 334.687 290.469 334.934 290.582 335.128L290.673 335.285C290.849 335.591 291.271 335.656 291.602 335.534C292.583 335.173 293.998 335.428 294.949 335.717C295.234 335.804 295.546 335.673 295.663 335.399Z" fill="#1F2A37" style="fill:#1F2A37;fill:color(display-p3 0.1231 0.1641 0.2142);fill-opacity:1;"/>
<path d="M284.577 339.522C284.641 340.591 284.198 341.486 283.588 341.523C282.977 341.56 282.43 340.723 282.366 339.655C282.302 338.586 282.745 337.691 283.355 337.654C283.966 337.617 284.513 338.454 284.577 339.522Z" fill="#1F2A37" style="fill:#1F2A37;fill:color(display-p3 0.1231 0.1641 0.2142);fill-opacity:1;"/>
<path d="M293.974 338.958C294.038 340.026 293.595 340.922 292.984 340.959C292.374 340.995 291.827 340.159 291.763 339.09C291.699 338.022 292.141 337.126 292.752 337.089C293.362 337.053 293.909 337.889 293.974 338.958Z" fill="#1F2A37" style="fill:#1F2A37;fill:color(display-p3 0.1231 0.1641 0.2142);fill-opacity:1;"/>
<path d="M281.158 356.857C283.226 358.952 286.365 360.427 291.533 358.73C291.014 359.316 289.864 360.495 287.211 360.654C284.558 360.813 281.794 358.206 281.158 356.857Z" fill="#DB9174" style="fill:#DB9174;fill:color(display-p3 0.8577 0.5686 0.4529);fill-opacity:1;"/>
<path d="M352.023 300.563H189.999L183.299 280.767H348.368L352.023 300.563Z" fill="#49A3FD" style="fill:#49A3FD;fill:color(display-p3 0.2872 0.6400 0.9928);fill-opacity:1;"/>
<ellipse cx="3.20486" cy="3.3298" rx="3.20486" ry="3.3298" transform="matrix(0.58941 -0.807834 0.743753 0.668455 199.236 292.028)" fill="#82BDF9" style="fill:#82BDF9;fill:color(display-p3 0.5098 0.7412 0.9765);fill-opacity:1;"/>
<ellipse cx="3.20486" cy="3.3298" rx="3.20486" ry="3.3298" transform="matrix(0.58941 -0.807834 0.743753 0.668455 208.967 292.028)" fill="#82BDF9" style="fill:#82BDF9;fill:color(display-p3 0.5098 0.7412 0.9765);fill-opacity:1;"/>
<ellipse cx="3.20486" cy="3.3298" rx="3.20486" ry="3.3298" transform="matrix(0.58941 -0.807834 0.743753 0.668455 218.697 292.028)" fill="#82BDF9" style="fill:#82BDF9;fill:color(display-p3 0.5098 0.7412 0.9765);fill-opacity:1;"/>
<path d="M280.174 295.48V290.177H281.18V291.047H281.238C281.463 290.456 281.985 290.109 282.684 290.109C283.392 290.109 283.885 290.456 284.109 291.047H284.168C284.417 290.475 284.993 290.109 285.76 290.109C286.717 290.109 287.396 290.71 287.4 291.925V295.48H286.355V292.023C286.355 291.305 285.906 291.007 285.359 291.007C284.69 291.007 284.305 291.466 284.305 292.101V295.48H283.27V291.964C283.27 291.383 282.874 291.007 282.303 291.007C281.717 291.007 281.219 291.496 281.219 292.209V295.48H280.174Z" fill="#D1E8FF" style="fill:#D1E8FF;fill:color(display-p3 0.8196 0.9098 1.0000);fill-opacity:1;"/>
<path d="M276.877 295.588C275.373 295.588 274.392 294.494 274.397 292.853C274.392 291.203 275.373 290.109 276.877 290.109C278.371 290.109 279.348 291.203 279.348 292.853C279.348 294.494 278.371 295.588 276.877 295.588ZM275.441 292.853C275.441 293.864 275.905 294.718 276.877 294.718C277.834 294.718 278.293 293.864 278.293 292.853C278.293 291.838 277.834 290.973 276.877 290.968C275.905 290.973 275.441 291.838 275.441 292.853Z" fill="#D1E8FF" style="fill:#D1E8FF;fill:color(display-p3 0.8196 0.9098 1.0000);fill-opacity:1;"/>
<path d="M271.336 295.588C269.832 295.588 268.851 294.494 268.855 292.853C268.851 291.203 269.832 290.109 271.336 290.109C272.83 290.109 273.807 291.203 273.807 292.853C273.807 294.494 272.83 295.588 271.336 295.588ZM269.9 292.853C269.9 293.864 270.364 294.718 271.336 294.718C272.293 294.718 272.752 293.864 272.752 292.853C272.752 291.838 272.293 290.973 271.336 290.968C270.364 290.973 269.9 291.838 269.9 292.853Z" fill="#D1E8FF" style="fill:#D1E8FF;fill:color(display-p3 0.8196 0.9098 1.0000);fill-opacity:1;"/>
<path d="M263.098 295.48V294.767L266.809 289.338H263.059V288.41H268.127V289.123L264.416 294.552H268.156V295.48H263.098Z" fill="#D1E8FF" style="fill:#D1E8FF;fill:color(display-p3 0.8196 0.9098 1.0000);fill-opacity:1;"/>
<path d="M191.177 277.628H344.896C347.55 277.629 349.826 279.523 350.306 282.133L370.986 394.571C371.608 397.95 369.013 401.066 365.577 401.066H211.857C209.204 401.066 206.928 399.17 206.448 396.56L185.768 284.124C185.146 280.744 187.741 277.628 191.177 277.628Z" stroke="#081E34" style="stroke:#081E34;stroke:color(display-p3 0.0314 0.1176 0.2039);stroke-opacity:1;" stroke-width="11"/>
<rect x="202.695" y="390.665" width="244.276" height="17" rx="8.5" fill="#081E34" style="fill:#081E34;fill:color(display-p3 0.0314 0.1176 0.2039);fill-opacity:1;"/>
<path d="M506.867 249.481C515.667 241.081 546.534 231.981 560.867 228.481L641.867 249.481L646.867 429.981H549.367C538.534 429.647 515.867 429.981 515.867 429.981C515.867 429.981 517.034 370.481 514.367 360.481L515.867 355.981L467.367 333.981C476.867 309.314 498.067 257.881 506.867 249.481Z" fill="#FEDF89" style="fill:#FEDF89;fill:color(display-p3 0.9977 0.8745 0.5357);fill-opacity:1;"/>
<path d="M484.113 158.25C482.993 147.664 490.585 127.48 497.006 128.981C498.766 138.103 508.339 157.481 517.506 164.481C517.506 169.681 522.506 171.647 525.006 171.981C526.34 169.314 531.106 164.081 539.506 164.481C550.006 164.981 552.633 174.481 549.006 182.981C546.163 189.644 538.34 194.981 533.506 196.481C528.706 209.681 535.506 228.647 539.506 236.481L523.506 241.981C521.006 233.814 518.133 216.481 515.506 217.481C512.285 218.707 505.133 223.481 494.006 221.481C486.909 220.205 482.34 200.647 481.006 189.981C478.633 189.981 473.581 187.509 471.96 182.981C470.644 179.304 485.456 170.949 484.113 158.25Z" fill="#EDD0C2" style="fill:#EDD0C2;fill:color(display-p3 0.9292 0.8151 0.7595);fill-opacity:1;"/>
<path d="M491.867 131.981C490.667 122.781 501.867 115.481 501.867 115.481C538.367 84.9805 595.707 93.2219 606.867 138.981C611.867 159.481 615.735 187.481 626.195 206.793C636.656 226.105 673.367 238.481 682.367 284.481C691.367 330.481 619.367 353.981 588.867 344.981C558.367 335.981 551.867 318.981 555.367 290.481C558.867 261.981 545.867 255.481 540.367 241.481C528.367 213.881 531.367 199.981 534.367 196.481C538.367 193.681 543.701 189.314 545.867 187.481C551.867 182.481 552.367 164.981 538.367 164.981C527.167 164.981 524.367 172.981 524.367 176.981C520.367 174.981 518.367 168.147 517.867 164.981C506.867 160.981 493.367 143.481 491.867 131.981Z" fill="#102A56" style="fill:#102A56;fill:color(display-p3 0.0640 0.1637 0.3360);fill-opacity:1;"/>
<path d="M460.867 352.481L469.367 333.981L515.867 355.981L513.867 361.981C487.367 415.981 467.867 413.981 446.867 404.981C425.867 395.981 419.367 363.981 416.867 357.481C414.867 352.281 408.034 309.981 404.867 289.481C398.701 285.481 385.967 277.381 384.367 276.981C382.367 276.481 362.367 262.481 359.867 259.481C357.367 256.481 359.367 254.481 360.867 254.481C362.367 254.481 379.367 263.481 381.367 263.481C382.967 263.481 382.367 262.481 381.867 261.981C378.367 259.314 370.567 253.281 367.367 250.481C363.367 246.981 353.867 235.981 357.867 234.981C361.867 233.981 374.867 244.981 378.367 246.981C381.867 248.981 385.367 250.981 385.867 250.981C386.367 250.981 378.367 242.981 377.867 242.481C377.367 241.981 361.367 227.981 360.867 220.981C360.467 215.381 364.367 216.647 366.367 217.981C374.201 224.981 390.167 239.181 391.367 239.981C392.867 240.981 393.367 241.481 393.867 240.481C394.367 239.481 383.367 226.981 382.867 226.981C382.367 226.981 374.867 216.981 373.367 211.481C371.867 205.981 376.367 204.981 377.867 206.481C381.067 209.681 405.201 233.147 416.867 244.481C417.534 238.981 418.767 226.981 418.367 222.981C417.867 217.981 425.367 206.481 427.367 221.481C431.767 250.281 451.534 320.814 460.867 352.481Z" fill="#EDD0C2" style="fill:#EDD0C2;fill:color(display-p3 0.9294 0.8157 0.7608);fill-opacity:1;"/>
<path d="M595.346 281.42C596.691 269.978 606.634 261.512 618.143 262.008L692.114 265.196C704.924 265.748 714.549 277.094 713.007 289.822L696.004 430.128H577.867L595.346 281.42Z" fill="#D1E8FF" style="fill:#D1E8FF;fill:color(display-p3 0.8196 0.9098 1.0000);fill-opacity:1;"/>
<path d="M486.343 196.866C485.986 195.334 487.093 194.848 487.691 194.796C491.4 194.796 495.384 192.991 499.081 192.1C502.777 191.209 503.134 191.833 503 193.525C502.866 195.218 500.105 198.336 496.097 200.518C492.088 202.7 486.788 198.781 486.343 196.866Z" fill="#C96542" style="fill:#C96542;fill:color(display-p3 0.7882 0.3961 0.2588);fill-opacity:1;"/>
<path d="M501.617 151.915C493.106 150.287 489.538 154.967 489.961 155.8C490.339 157.136 495.584 154.967 498.286 154.967C502.56 154.967 507.093 158.113 507.926 157.188C508.758 156.262 506.889 153.487 501.617 151.915Z" fill="#102A56" style="fill:#102A56;fill:color(display-p3 0.0627 0.1647 0.3373);fill-opacity:1;"/>
<ellipse cx="496.289" cy="165.601" rx="3.44764" ry="5.29869" transform="rotate(-7.42979 496.289 165.601)" fill="#102A56" style="fill:#102A56;fill:color(display-p3 0.0627 0.1647 0.3373);fill-opacity:1;"/>
<path d="M632.535 80.2078L637.019 70.3232C637.703 68.8144 639.82 68.7443 640.603 70.2044L646.02 80.3091C646.2 80.6456 646.473 80.9234 646.806 81.1098L656.714 86.6498C658.093 87.4204 658.076 89.4092 656.685 90.157L646.818 95.4618C646.478 95.6451 646.197 95.9234 646.011 96.263L640.594 106.16C639.806 107.6 637.714 107.53 637.025 106.04L632.544 96.3654C632.357 95.9618 632.041 95.632 631.645 95.4282L621.45 90.1728C620.018 89.4348 620.002 87.3935 621.421 86.6324L631.659 81.1443C632.046 80.9368 632.354 80.6077 632.535 80.2078Z" fill="#B9EEF5" style="fill:#B9EEF5;fill:color(display-p3 0.7255 0.9333 0.9608);fill-opacity:1;"/>
<circle cx="659.898" cy="141.728" r="6.23055" fill="#CAE2FF" style="fill:#CAE2FF;fill:color(display-p3 0.7909 0.8852 1.0000);fill-opacity:1;"/>
<rect x="95.6133" y="389.128" width="60" height="29" rx="14.5" fill="#175CD3" style="fill:#175CD3;fill:color(display-p3 0.0920 0.3619 0.8280);fill-opacity:1;"/>
<rect x="44.5117" y="406.128" width="580" height="24" rx="12" fill="#D1E8FF" style="fill:#D1E8FF;fill:color(display-p3 0.8196 0.9098 1.0000);fill-opacity:1;"/>
<path d="M131.866 227.757L98.9219 281.048L123.004 394.086L113.223 396.17L88.3047 279.207L123.36 222.5L131.866 227.757Z" fill="#175CD3" style="fill:#175CD3;fill:color(display-p3 0.0920 0.3619 0.8280);fill-opacity:1;"/>
<circle cx="95.1133" cy="280.628" r="8.5" fill="#175CD3" style="fill:#175CD3;fill:color(display-p3 0.0920 0.3619 0.8280);fill-opacity:1;"/>
<circle cx="148.113" cy="239.628" r="20.5" fill="#FEC84B" style="fill:#FEC84B;fill:color(display-p3 0.9965 0.7856 0.2937);fill-opacity:1;"/>
<path d="M123.178 257.579C113.477 244.147 116.502 225.395 129.933 215.694C143.365 205.993 162.118 209.017 171.819 222.448L174.746 226.502L126.106 261.632L123.178 257.579Z" fill="#175CD3" style="fill:#175CD3;fill:color(display-p3 0.0920 0.3619 0.8280);fill-opacity:1;"/>
<rect x="68.6895" y="21.4409" width="226" height="167" rx="20" fill="#ADD6FF" stroke="white" style="fill:#ADD6FF;fill:color(display-p3 0.6800 0.8400 1.0000);fill-opacity:1;stroke:white;stroke-opacity:1;" stroke-width="6"/>
<path d="M168.688 125.441C137.487 128.641 123.354 149.108 120.188 158.941L108.188 184.941H254.188C252.188 134.441 207.688 121.441 168.688 125.441Z" fill="#48A0B9" style="fill:#48A0B9;fill:color(display-p3 0.2824 0.6275 0.7255);fill-opacity:1;"/>
<path d="M179.687 45.9408C154.487 45.9408 157.354 74.2742 161.687 87.4408L169.187 91.9409C182.354 90.4409 209.987 86.4408 215.187 82.4409C221.687 77.4409 223.687 65.4409 222.687 58.4409C221.887 52.8409 216.354 52.7742 213.687 53.4409C214.021 51.6075 213.787 47.0409 210.187 43.4408C201.787 36.6408 186.354 42.2742 179.687 45.9408Z" fill="#1F2A37" style="fill:#1F2A37;fill:color(display-p3 0.1231 0.1641 0.2142);fill-opacity:1;"/>
<path d="M209.688 62.9408C204.188 65.9409 194.855 64.1075 190.688 62.9408C189.688 62.6747 181.188 55.4408 180.188 65.4408C179.188 75.4408 174.688 85.9408 173.688 87.9408C172.888 89.5408 172.022 88.9408 171.688 88.4408C166.188 80.9408 159.688 84.4408 159.188 88.4408C157.188 98.0408 165.022 99.7742 169.188 99.4408C168.522 106.607 167.088 121.841 166.688 125.441C166.288 129.041 170.855 132.607 173.188 133.941C190.688 140.441 196.688 133.191 198.188 130.941C199.688 128.691 200.522 125.441 200.688 123.441C209.488 119.841 213.022 106.941 213.688 100.941C215.188 92.9408 215.188 59.9408 209.688 62.9408Z" fill="#E7B39E" style="fill:#E7B39E;fill:color(display-p3 0.9060 0.7022 0.6206);fill-opacity:1;"/>
<path d="M96.6883 98.9409C91.8883 98.1409 101.355 126.274 106.688 140.441C111.188 140.608 120.988 140.341 124.188 137.941C128.188 134.941 134.188 121.441 135.688 117.941C137.188 114.441 136.688 112.441 135.188 111.441C133.688 110.441 129.688 113.941 128.188 117.441C126.988 120.241 125.688 120.274 125.188 119.941L124.188 98.9409C124.355 96.9409 124.088 92.6409 121.688 91.4409C119.288 90.2409 117.688 103.608 117.188 110.441L114.688 93.9409C114.188 88.4409 113.188 87.4409 111.188 87.9409C109.188 88.4409 109.688 100.108 110.188 106.441L108.188 96.9409C107.188 91.4409 106.688 89.4409 104.188 89.9409C101.688 90.4409 103.688 104.274 104.688 111.441C103.855 110.441 101.988 107.741 101.188 104.941C100.188 101.441 98.1882 98.9409 96.6883 98.9409Z" fill="#E7B39E" style="fill:#E7B39E;fill:color(display-p3 0.9060 0.7022 0.6206);fill-opacity:1;"/>
<path d="M128.855 137.941H105.355C101.755 149.941 99.5221 174.608 98.8555 185.441H132.855C134.055 167.441 130.689 146.274 128.855 137.941Z" fill="#377C90" style="fill:#377C90;fill:color(display-p3 0.2158 0.4871 0.5642);fill-opacity:1;"/>
<path d="M127.188 137.941H103.688C100.088 149.941 97.8542 174.608 97.1875 185.441H131.188C132.388 167.441 129.021 146.274 127.188 137.941Z" fill="#48A0B9" style="fill:#48A0B9;fill:color(display-p3 0.2824 0.6275 0.7255);fill-opacity:1;"/>
<path d="M187.189 108.055C188.356 109.722 192.489 112.555 199.689 110.555" stroke="#C96542" style="stroke:#C96542;stroke:color(display-p3 0.7877 0.3955 0.2603);stroke-opacity:1;" stroke-width="2.3" stroke-linecap="round"/>
<path d="M198.259 85.4515C199.373 88.793 201.775 95.2888 202.163 98.866C202.322 100.332 201.525 101.66 200.222 102.268C199.145 102.771 197.636 103.302 195.83 103.56L195.547 101.58C197.132 101.353 198.452 100.887 199.376 100.456C199.937 100.194 200.236 99.6609 200.174 99.0818C199.813 95.7515 198.186 89.2207 197.063 85.8503L198.259 85.4515Z" fill="#1F2A37" style="fill:#1F2A37;fill:color(display-p3 0.1216 0.1647 0.2157);fill-opacity:1;"/>
<path d="M182.258 82.7081L182.077 82.3458C181.855 81.9006 181.994 81.3545 182.418 81.0939C186.659 78.4863 189.765 79.471 191.202 80.611C191.52 80.8634 191.571 81.3073 191.389 81.6705L191.243 81.9636C190.958 82.5331 190.203 82.6958 189.594 82.5123C187.787 81.9685 185.263 82.5803 183.58 83.2052C183.076 83.3925 182.499 83.1892 182.258 82.7081Z" fill="#1F2A37" style="fill:#1F2A37;fill:color(display-p3 0.1231 0.1641 0.2142);fill-opacity:1;"/>
<path d="M210.62 82.8373L210.802 82.4749C211.024 82.0298 210.885 81.4837 210.461 81.2231C206.22 78.6155 203.114 79.6001 201.677 80.7402C201.358 80.9925 201.308 81.4365 201.49 81.7997L201.636 82.0928C201.921 82.6622 202.676 82.8249 203.285 82.6415C205.092 82.0976 207.616 82.7094 209.299 83.3344C209.803 83.5216 210.38 83.3184 210.62 82.8373Z" fill="#1F2A37" style="fill:#1F2A37;fill:color(display-p3 0.1231 0.1641 0.2142);fill-opacity:1;"/>
<ellipse cx="188.189" cy="89.0701" rx="2" ry="3.5" fill="#1F2A37" style="fill:#1F2A37;fill:color(display-p3 0.1231 0.1641 0.2142);fill-opacity:1;"/>
<ellipse cx="205.189" cy="89.0701" rx="2" ry="3.5" fill="#1F2A37" style="fill:#1F2A37;fill:color(display-p3 0.1231 0.1641 0.2142);fill-opacity:1;"/>
<path d="M182.148 119.949C185.648 123.949 191.148 126.949 200.648 124.449C199.648 125.449 197.448 127.449 192.648 127.449C187.848 127.449 183.148 122.449 182.148 119.949Z" fill="#DB9174" style="fill:#DB9174;fill:color(display-p3 0.8577 0.5686 0.4529);fill-opacity:1;"/>
</g>
<defs>
<clipPath id="clip0_53_3801">
<rect width="753" height="430" fill="white" style="fill:white;fill-opacity:1;" transform="translate(0 0.128418)"/>
</clipPath>
</defs>
</svg>
