<svg width="32" height="33" viewBox="0 0 32 33" fill="none" xmlns="http://www.w3.org/2000/svg">
<path d="M8.00002 29.0917C7.62224 29.0917 7.30558 28.9639 7.05002 28.7083C6.79446 28.4528 6.66669 28.1361 6.66669 27.7583C6.66669 27.3806 6.79446 27.0639 7.05002 26.8083C7.30558 26.5528 7.62224 26.425 8.00002 26.425H24C24.3778 26.425 24.6945 26.5528 24.95 26.8083C25.2056 27.0639 25.3334 27.3806 25.3334 27.7583C25.3334 28.1361 25.2056 28.4528 24.95 28.7083C24.6945 28.9639 24.3778 29.0917 24 29.0917H8.00002ZM8.93335 24.425C8.28891 24.425 7.71669 24.2139 7.21669 23.7917C6.71669 23.3695 6.41113 22.8361 6.30002 22.1917L4.96669 13.725C4.92224 13.725 4.87224 13.7306 4.81669 13.7417C4.76113 13.7528 4.71113 13.7583 4.66669 13.7583C4.11113 13.7583 3.63891 13.5639 3.25002 13.175C2.86113 12.7861 2.66669 12.3139 2.66669 11.7583C2.66669 11.2028 2.86113 10.7306 3.25002 10.3417C3.63891 9.95279 4.11113 9.75834 4.66669 9.75834C5.22224 9.75834 5.69446 9.95279 6.08335 10.3417C6.47224 10.7306 6.66669 11.2028 6.66669 11.7583C6.66669 11.9139 6.65002 12.0583 6.61669 12.1917C6.58335 12.325 6.54446 12.4472 6.50002 12.5583L10.6667 14.425L14.8334 8.72501C14.5889 8.54723 14.3889 8.3139 14.2334 8.02501C14.0778 7.73612 14 7.42501 14 7.09167C14 6.53612 14.1945 6.0639 14.5834 5.67501C14.9722 5.28612 15.4445 5.09167 16 5.09167C16.5556 5.09167 17.0278 5.28612 17.4167 5.67501C17.8056 6.0639 18 6.53612 18 7.09167C18 7.42501 17.9222 7.73612 17.7667 8.02501C17.6111 8.3139 17.4111 8.54723 17.1667 8.72501L21.3334 14.425L25.5 12.5583C25.4556 12.4472 25.4167 12.325 25.3834 12.1917C25.35 12.0583 25.3334 11.9139 25.3334 11.7583C25.3334 11.2028 25.5278 10.7306 25.9167 10.3417C26.3056 9.95279 26.7778 9.75834 27.3334 9.75834C27.8889 9.75834 28.3611 9.95279 28.75 10.3417C29.1389 10.7306 29.3334 11.2028 29.3334 11.7583C29.3334 12.3139 29.1389 12.7861 28.75 13.175C28.3611 13.5639 27.8889 13.7583 27.3334 13.7583C27.2889 13.7583 27.2389 13.7528 27.1834 13.7417C27.1278 13.7306 27.0778 13.725 27.0334 13.725L25.7 22.1917C25.5889 22.8361 25.2834 23.3695 24.7834 23.7917C24.2834 24.2139 23.7111 24.425 23.0667 24.425H8.93335ZM8.93335 21.7583H23.0667L23.9334 16.1917L22.4 16.8583C21.8222 17.1028 21.2334 17.1472 20.6334 16.9917C20.0334 16.8361 19.5445 16.5028 19.1667 15.9917L16 11.625L12.8334 15.9917C12.4556 16.5028 11.9667 16.8361 11.3667 16.9917C10.7667 17.1472 10.1778 17.1028 9.60002 16.8583L8.06669 16.1917L8.93335 21.7583Z" fill="url(#paint0_linear_53_1692)" style=""/>
<defs>
<linearGradient id="paint0_linear_53_1692" x1="5.33337" y1="7.94882" x2="31.8062" y2="13.2022" gradientUnits="userSpaceOnUse">
<stop stop-color="#49A3FD" style="stop-color:#49A3FD;stop-color:color(display-p3 0.2872 0.6400 0.9928);stop-opacity:1;"/>
<stop offset="1" stop-color="#79C7FF" style="stop-color:#79C7FF;stop-color:color(display-p3 0.4749 0.7812 1.0000);stop-opacity:1;"/>
</linearGradient>
</defs>
</svg>
