<svg width="140" height="85" viewBox="0 0 140 85" fill="none" xmlns="http://www.w3.org/2000/svg">
<path d="M14.4119 78.5703C14.7668 78.5944 15.1292 78.5824 15.4955 78.5316L15.6097 79.3554C15.192 79.4133 14.778 79.4259 14.3719 79.3982L14.4119 78.5703ZM17.0927 78.3102L17.2069 79.134L15.6097 79.3554L15.4955 78.5316L17.0927 78.3102ZM23.4825 77.4245L23.5967 78.2483L20.4022 78.6911L20.288 77.8673L23.4825 77.4245ZM29.8722 76.5388L29.9864 77.3626L26.7912 77.8055L26.677 76.9817L29.8722 76.5388ZM36.2612 75.6533L36.3754 76.4771L33.1809 76.9198L33.0667 76.096L36.2612 75.6533ZM42.651 74.7676L42.7652 75.5914L39.5707 76.0342L39.4565 75.2104L42.651 74.7676ZM49.0407 73.8819L49.1549 74.7057L45.9597 75.1486L45.8455 74.3248L49.0407 73.8819ZM55.4297 72.9963L55.5439 73.8201L52.3494 74.2629L52.2352 73.4391L55.4297 72.9963ZM61.8195 72.1106L61.9337 72.9344L58.7392 73.3772L58.625 72.5534L61.8195 72.1106ZM68.2092 71.2249L68.3234 72.0487L65.1282 72.4916L65.014 71.6678L68.2092 71.2249ZM74.599 70.3392L74.7132 71.163L71.5179 71.6059L71.4037 70.7821L74.599 70.3392ZM80.988 69.4537L81.1022 70.2775L77.9077 70.7202L77.7935 69.8964L80.988 69.4537ZM87.3777 68.568L87.4919 69.3918L84.2974 69.8346L84.1832 69.0108L87.3777 68.568ZM93.7675 67.6823L93.8817 68.5061L90.6864 68.949L90.5722 68.1252L93.7675 67.6823ZM100.156 66.7967L100.271 67.6205L97.0762 68.0633L96.962 67.2395L100.156 66.7967ZM106.546 65.911L106.66 66.7348L103.466 67.1776L103.352 66.3538L106.546 65.911ZM112.936 65.0253L113.05 65.8491L109.855 66.292L109.741 65.4682L112.936 65.0253ZM119.325 64.1397L119.439 64.9635L116.245 65.4063L116.13 64.5825L119.325 64.1397ZM124.117 63.4755L124.232 64.2993L122.634 64.5207L122.52 63.6969L124.117 63.4755ZM125.434 64.0039C125.051 64.1408 124.649 64.2414 124.232 64.2993L124.117 63.4755C124.484 63.4247 124.836 63.3377 125.171 63.218L125.434 64.0039ZM10.5911 76.599C11.0779 77.1728 11.6669 77.6433 12.3221 77.9818L12.1512 78.354L12.1521 78.3547L11.9819 78.7259C11.2336 78.3392 10.5611 77.8021 10.0052 77.1468L10.5911 76.599ZM128.667 60.4661L129.023 60.6496C128.667 61.4315 128.166 62.1312 127.551 62.7069L127.287 62.3958L127.022 62.0832C127.56 61.5793 127.999 60.9663 128.311 60.2818L128.667 60.4661ZM8.44454 73.6315L8.22687 72.0612L9.00833 71.9528L9.226 73.5232C9.27952 73.9094 9.36728 74.281 9.4859 74.6351L8.74179 74.9006C8.60616 74.4956 8.50552 74.0715 8.44454 73.6315ZM129.57 56.8423C129.631 57.2823 129.649 57.7178 129.628 58.1445L128.841 58.0913C128.858 57.7183 128.842 57.3368 128.788 56.9506L128.571 55.3803L129.352 55.2719L129.57 56.8423ZM8.13765 65.6714L8.57299 68.8121L7.79154 68.9204L7.3562 65.7797L8.13765 65.6714ZM128.481 48.9904L128.917 52.1312L128.135 52.2395L127.7 49.0988L128.481 48.9904ZM7.26697 59.3899L7.70231 62.5306L6.92086 62.6389L6.48552 59.4982L7.26697 59.3899ZM127.611 42.709L128.046 45.8497L127.265 45.958L126.829 42.8173L127.611 42.709ZM6.3963 53.1084L6.83163 56.2491L6.05018 56.3575L5.61484 53.2167L6.3963 53.1084ZM126.74 36.4275L127.175 39.5682L126.394 39.6765L125.959 36.5358L126.74 36.4275ZM5.52562 46.8269L5.96096 49.9676L5.1795 50.076L4.74417 46.9352L5.52562 46.8269ZM125.869 30.146L126.305 33.2867L125.523 33.3951L125.088 30.2543L125.869 30.146ZM4.65494 40.5454L5.09028 43.6862L4.30883 43.7945L3.87349 40.6537L4.65494 40.5454ZM124.999 23.8645L125.434 27.0053L124.653 27.1136L124.217 23.9728L124.999 23.8645ZM3.78426 34.2639L4.2196 37.4047L3.43815 37.513L3.00281 34.3723L3.78426 34.2639ZM124.128 17.583L124.563 20.7238L123.782 20.8321L123.347 17.6913L124.128 17.583ZM2.91359 27.9825L3.34893 31.1232L2.56747 31.2315L2.13213 28.0908L2.91359 27.9825ZM123.257 11.3015L123.693 14.4423L122.911 14.5506L122.476 11.4099L123.257 11.3015ZM1.47913 23.3797C1.41811 22.9394 1.39945 22.5036 1.41987 22.0768L2.20825 22.1307C2.19042 22.5037 2.20706 22.8852 2.26058 23.2713L2.47825 24.8417L1.69679 24.95L1.47913 23.3797ZM122.822 8.1608L122.041 8.26912L121.823 6.69874C121.769 6.3126 121.682 5.94097 121.563 5.58684L122.306 5.32065C122.442 5.72592 122.543 6.15016 122.604 6.59043L122.822 8.1608ZM3.6508 17.6957L4.02722 18.1387C3.48884 18.6427 3.05 19.2557 2.73765 19.9402L2.02466 19.5716C2.3814 18.7899 2.88247 18.0899 3.49734 17.5144L3.6508 17.6957ZM119.066 1.49536C119.814 1.88191 120.487 2.41922 121.043 3.07445L120.458 3.62293C119.971 3.0492 119.382 2.57865 118.727 2.24017L118.969 1.71142L119.066 1.49536ZM8.4145 15.7013L8.52869 16.5251L6.93144 16.7465C6.56515 16.7973 6.21314 16.8843 5.87821 17.004L5.61439 16.2173C5.89851 16.1158 6.19299 16.0349 6.49644 15.9762L6.81725 15.9227L8.4145 15.7013ZM115.763 0.830767C116.07 0.804769 116.375 0.802605 116.676 0.823023L116.637 1.65168C116.282 1.62756 115.92 1.63959 115.553 1.69036L113.956 1.91175L113.842 1.08795L115.439 0.866557L115.763 0.830767ZM14.8043 14.8156L14.9184 15.6394L11.7239 16.0822L11.6098 15.2584L14.8043 14.8156ZM21.194 13.9299L21.3082 14.7537L18.1129 15.1966L17.9987 14.3728L21.194 13.9299ZM27.583 13.0444L27.6972 13.8682L24.5027 14.3109L24.3885 13.4871L27.583 13.0444ZM33.9728 12.1587L34.0869 12.9825L30.8924 13.4253L30.7783 12.6015L33.9728 12.1587ZM40.3625 11.273L40.4767 12.0968L37.2814 12.5397L37.1672 11.7159L40.3625 11.273ZM46.7515 10.3874L46.8657 11.2112L43.6712 11.654L43.557 10.8302L46.7515 10.3874ZM53.1412 9.50171L53.2554 10.3255L50.0609 10.7683L49.9468 9.9445L53.1412 9.50171ZM59.531 8.61603L59.6452 9.43983L56.4499 9.88272L56.3357 9.05892L59.531 8.61603ZM65.9208 7.73034L66.0349 8.55414L62.8397 8.99704L62.7255 8.17324L65.9208 7.73034ZM72.3097 6.84476L72.4239 7.66856L69.2294 8.11135L69.1153 7.28755L72.3097 6.84476ZM78.6995 5.95907L78.8137 6.78287L75.6192 7.22566L75.505 6.40186L78.6995 5.95907ZM85.0893 5.07338L85.2034 5.89719L82.0082 6.34008L81.894 5.51628L85.0893 5.07338ZM91.4782 4.1878L91.5924 5.0116L88.3979 5.4544L88.2838 4.63059L91.4782 4.1878ZM97.868 3.30212L97.9822 4.12592L94.7877 4.56871L94.6735 3.74491L97.868 3.30212ZM104.258 2.41643L104.372 3.24023L101.177 3.68313L101.062 2.85933L104.258 2.41643ZM110.647 1.53085L110.761 2.35465L107.566 2.79744L107.452 1.97364L110.647 1.53085Z" fill="#9DA4AE" style="fill:#9DA4AE;fill:color(display-p3 0.6139 0.6420 0.6841);fill-opacity:1;"/>
<path d="M17.5909 25.7451C17.5909 21.9813 20.5003 18.9302 24.0892 18.9302H132.936C136.525 18.9302 139.434 21.9813 139.434 25.7451V77.7091C139.434 81.4729 136.525 84.5241 132.936 84.5241H24.0893C20.5003 84.5241 17.5909 81.4729 17.5909 77.7091V25.7451Z" fill="#F3F4F6" style="fill:#F3F4F6;fill:color(display-p3 0.9535 0.9574 0.9642);fill-opacity:1;"/>
<path d="M129.29 81.3119V82.1008H23.5744V81.3119H129.29ZM134.813 75.7894V27.6649C134.813 24.6149 132.34 22.1424 129.29 22.1424H23.5744C20.5245 22.1424 18.052 24.6149 18.052 27.6649V75.7894C18.052 78.8394 20.5245 81.3119 23.5744 81.3119V82.1008C20.0887 82.1008 17.263 79.2751 17.263 75.7894V27.6649C17.263 24.1792 20.0887 21.3535 23.5744 21.3535H129.29L129.615 21.362C132.95 21.5312 135.602 24.2883 135.602 27.6649V75.7894C135.602 79.166 132.95 81.9231 129.615 82.0923L129.29 82.1008V81.3119C132.34 81.3119 134.813 78.8394 134.813 75.7894Z" fill="#F3F4F6" style="fill:#F3F4F6;fill:color(display-p3 0.9535 0.9574 0.9642);fill-opacity:1;"/>
<path d="M27.8102 33.1874C27.8102 31.4445 29.223 30.0317 30.9659 30.0317H68.8342C70.5771 30.0317 71.9899 31.4445 71.9899 33.1874V71.0558C71.9899 72.7986 70.5771 74.2115 68.8342 74.2115H30.9659C29.223 74.2115 27.8102 72.7986 27.8102 71.0558V33.1874Z" fill="white" style="fill:white;fill-opacity:1;"/>
<path d="M30.0598 73.2431C30.3378 73.3583 30.6435 73.4226 30.9659 73.4226V74.2115C30.5378 74.2115 30.13 74.1255 29.7578 73.9711L30.0598 73.2431ZM32.5437 73.4226V74.2115H30.9659V73.4226H32.5437ZM38.8551 73.4226V74.2115H35.6994V73.4226H38.8551ZM45.1665 73.4226V74.2115H42.0108V73.4226H45.1665ZM51.4779 73.4226V74.2115H48.3222V73.4226H51.4779ZM57.7893 73.4226V74.2115H54.6336V73.4226H57.7893ZM64.1007 73.4226V74.2115H60.945V73.4226H64.1007ZM68.8342 73.4226V74.2115H67.2564V73.4226H68.8342ZM70.0415 73.9711C69.7169 74.1057 69.3654 74.1889 68.9968 74.2077L68.8342 74.2115V73.4226C69.1566 73.4226 69.4623 73.3583 69.7403 73.2431L70.0415 73.9711ZM27.8102 71.0558V69.478H28.5991V71.0558C28.5991 71.3782 28.6633 71.6839 28.7786 71.9618L28.0498 72.2631C27.9153 71.9385 27.8327 71.5869 27.814 71.2184L27.8102 71.0558ZM71.9861 71.2184C71.9674 71.587 71.8841 71.9385 71.7496 72.2631L71.0215 71.9618C71.1368 71.6839 71.201 71.3782 71.201 71.0558V69.478H71.9899V71.0558L71.9861 71.2184ZM28.5991 63.1665V66.3223H27.8102V63.1665H28.5991ZM71.9899 63.1665V66.3223H71.201V63.1665H71.9899ZM28.5991 56.8551V60.0108H27.8102V56.8551H28.5991ZM71.9899 56.8551V60.0108H71.201V56.8551H71.9899ZM28.5991 50.5437V53.6994H27.8102V50.5437H28.5991ZM71.9899 50.5437V53.6994H71.201V50.5437H71.9899ZM28.5991 44.2323V47.388H27.8102V44.2323H28.5991ZM71.9899 44.2323V47.388H71.201V44.2323H71.9899ZM28.5991 37.9209V41.0766H27.8102V37.9209H28.5991ZM71.9899 37.9209V41.0766H71.201V37.9209H71.9899ZM27.8102 33.1874C27.8102 32.7594 27.8954 32.3515 28.0498 31.9793L28.7786 32.2813C28.6633 32.5593 28.5991 32.865 28.5991 33.1874V34.7652H27.8102V33.1874ZM71.9899 34.7652H71.201V33.1874C71.201 32.865 71.1368 32.5593 71.0215 32.2813L71.7496 31.9793C71.904 32.3515 71.9899 32.7593 71.9899 33.1874V34.7652ZM32.5437 30.0317V30.8206H30.9659C30.6435 30.8206 30.3378 30.8848 30.0598 31.0001L29.7578 30.2713C30.1299 30.117 30.5379 30.0317 30.9659 30.0317H32.5437ZM68.9968 30.0355C69.3653 30.0542 69.717 30.1368 70.0415 30.2713L69.7403 31.0001C69.4623 30.8848 69.1566 30.8206 68.8342 30.8206H67.2564V30.0317H68.8342L68.9968 30.0355ZM38.8551 30.0317V30.8206H35.6994V30.0317H38.8551ZM45.1665 30.0317V30.8206H42.0108V30.0317H45.1665ZM51.4779 30.0317V30.8206H48.3222V30.0317H51.4779ZM57.7893 30.0317V30.8206H54.6336V30.0317H57.7893ZM64.1007 30.0317V30.8206H60.945V30.0317H64.1007Z" fill="#D2D6DB" style="fill:#D2D6DB;fill:color(display-p3 0.8224 0.8377 0.8576);fill-opacity:1;"/>
<path d="M126.242 32.3984C127.332 32.3984 128.215 33.2815 128.215 34.3708C128.215 35.46 127.332 36.3431 126.242 36.3431H85.2182C84.1289 36.3431 83.2458 35.46 83.2458 34.3708C83.2458 33.2815 84.1289 32.3984 85.2182 32.3984H126.242Z" fill="#E5E7EB" style="fill:#E5E7EB;fill:color(display-p3 0.8990 0.9069 0.9206);fill-opacity:1;"/>
<path d="M126.242 45.0212C127.332 45.0212 128.215 45.9043 128.215 46.9936C128.215 48.0828 127.332 48.9659 126.242 48.9659H85.2182C84.1289 48.9659 83.2458 48.0828 83.2458 46.9936C83.2458 45.9043 84.1289 45.0212 85.2182 45.0212H126.242Z" fill="#E5E7EB" style="fill:#E5E7EB;fill:color(display-p3 0.8990 0.9069 0.9206);fill-opacity:1;"/>
<path d="M106.519 56.0662C107.608 56.0662 108.491 56.9492 108.491 58.0385C108.491 59.1278 107.608 60.0108 106.519 60.0108H85.2182C84.1289 60.0108 83.2458 59.1278 83.2458 58.0385C83.2458 56.9492 84.1289 56.0662 85.2182 56.0662H106.519Z" fill="#E5E7EB" style="fill:#E5E7EB;fill:color(display-p3 0.8990 0.9069 0.9206);fill-opacity:1;"/>
<path d="M126.243 56.0662C127.332 56.0662 128.215 56.9492 128.215 58.0385C128.215 59.1278 127.332 60.0108 126.243 60.0108H113.62C112.531 60.0108 111.648 59.1278 111.648 58.0385C111.648 56.9492 112.531 56.0662 113.62 56.0662H126.243Z" fill="#E5E7EB" style="fill:#E5E7EB;fill:color(display-p3 0.8990 0.9069 0.9206);fill-opacity:1;"/>
<path d="M44.1743 60.3376C43.5581 60.9537 42.5591 60.9537 41.9429 60.3376C41.3267 59.7214 41.3267 58.7223 41.9429 58.1061L55.4899 44.5591C56.1061 43.9429 57.1052 43.9429 57.7214 44.5591C58.3375 45.1753 58.3375 46.1743 57.7214 46.7905L44.1743 60.3376Z" fill="#E5E7EB" style="fill:#E5E7EB;fill:color(display-p3 0.8990 0.9069 0.9206);fill-opacity:1;"/>
<path d="M55.6258 60.3376C56.242 60.9537 57.241 60.9537 57.8572 60.3376C58.4734 59.7214 58.4734 58.7223 57.8572 58.1061L44.3102 44.5591C43.694 43.9429 42.6949 43.9429 42.0787 44.5591C41.4626 45.1753 41.4626 46.1743 42.0787 46.7905L55.6258 60.3376Z" fill="#E5E7EB" style="fill:#E5E7EB;fill:color(display-p3 0.8990 0.9069 0.9206);fill-opacity:1;"/>
<path d="M126.242 67.9001C127.332 67.9001 128.215 68.7832 128.215 69.8725C128.215 70.9617 127.332 71.8448 126.242 71.8448H85.2182C84.1289 71.8448 83.2458 70.9617 83.2458 69.8725C83.2458 68.7832 84.1289 67.9001 85.2182 67.9001H126.242Z" fill="#E5E7EB" style="fill:#E5E7EB;fill:color(display-p3 0.8990 0.9069 0.9206);fill-opacity:1;"/>
</svg>
