<svg width="24" height="25" viewBox="0 0 24 25" fill="none" xmlns="http://www.w3.org/2000/svg">
<path d="M22.1 9.52517C22 6.12517 19.3 3.42517 15.9 3.42517C14.8 3.42517 13.1 4.22517 12.4 5.52517C12.3 5.82517 11.9 5.82517 11.8 5.52517C11 4.32517 9.4 3.52517 8.2 3.52517C4.9 3.52517 2.1 6.22517 2 9.52517V9.72517C2 11.4252 2.7 13.0252 3.9 14.2252C3.9 14.2252 3.9 14.2252 3.9 14.3252C4 14.4252 8.8 18.6252 11 20.5252C11.6 21.0252 12.5 21.0252 13.1 20.5252C15.3 18.6252 20 14.4252 20.2 14.3252C20.2 14.3252 20.2 14.3252 20.2 14.2252C21.4 13.1252 22.1 11.5252 22.1 9.72517V9.52517Z" fill="#1284FF" style="fill:#1284FF;fill:color(display-p3 0.0705 0.5163 0.9985);fill-opacity:1;"/>
</svg>
