<svg width="105" height="48" viewBox="0 0 105 48" fill="none" xmlns="http://www.w3.org/2000/svg">
<path d="M41.735 33.4934H39.2956V23.0707L39.6523 23.4094C39.8816 23.6267 40.1924 23.7486 40.5164 23.7484C40.8403 23.7481 41.1509 23.6257 41.3797 23.408C41.6086 23.1903 41.737 22.8952 41.7367 22.5876C41.7364 22.28 41.6075 21.9851 41.3782 21.7678L26.3836 7.53503C25.9261 7.10099 25.3059 6.85718 24.6592 6.85718C24.0125 6.85718 23.3923 7.10099 22.9349 7.53503L7.94023 21.7678C7.71157 21.9851 7.58318 22.2798 7.58333 22.587C7.58347 22.8941 7.71213 23.1887 7.94099 23.4058C8.16985 23.6229 8.48018 23.7448 8.8037 23.7447C9.12722 23.7445 9.43744 23.6224 9.6661 23.4051L10.0229 23.0707V33.4934H7.58347C7.25998 33.4934 6.94975 33.6154 6.72101 33.8326C6.49227 34.0498 6.36377 34.3443 6.36377 34.6515C6.36377 34.9586 6.49227 35.2532 6.72101 35.4704C6.94975 35.6875 7.25998 35.8096 7.58347 35.8096H41.735C42.0585 35.8096 42.3687 35.6875 42.5974 35.4704C42.8262 35.2532 42.9547 34.9586 42.9547 34.6515C42.9547 34.3443 42.8262 34.0498 42.5974 33.8326C42.3687 33.6154 42.0585 33.4934 41.735 33.4934ZM28.3183 33.4934H21.0001V26.5449C21.0001 26.3913 21.0644 26.2441 21.1788 26.1355C21.2931 26.0269 21.4482 25.9659 21.61 25.9659H27.7085C27.8702 25.9659 28.0253 26.0269 28.1397 26.1355C28.2541 26.2441 28.3183 26.3913 28.3183 26.5449V33.4934Z" fill="#1284FF" style="fill:#1284FF;fill:color(display-p3 0.0705 0.5163 0.9985);fill-opacity:1;"/>
<path d="M33.2026 28.767C33.565 28.6841 33.9443 28.6986 34.2993 28.8099L34.2983 28.8109L44.9097 32.1283L44.9165 32.1302C45.304 32.2544 45.6505 32.4906 45.9058 32.8138C46.1295 33.0972 46.2736 33.4355 46.3198 33.7943L46.3335 33.9486L46.3345 34.1049C46.3238 34.4665 46.214 34.8174 46.0181 35.1215C45.7944 35.4684 45.4713 35.7365 45.0962 35.8959L45.0767 35.9037L45.0581 35.9105L45.0366 35.9193L45.0288 35.9213L43.2056 36.5912L45.7993 39.0756C46.1405 39.4023 46.3413 39.8548 46.3413 40.3363C46.3413 40.8178 46.1405 41.2703 45.7993 41.597L44.9585 42.4027C44.7902 42.5642 44.5928 42.6904 44.3784 42.7758C44.1635 42.8612 43.934 42.9046 43.7036 42.9047C43.4732 42.9047 43.2438 42.8613 43.0288 42.7758C42.8137 42.6902 42.6154 42.5638 42.4468 42.4017V42.4008L39.7671 39.8344L39.0435 41.6449L39.0405 41.6537L38.1147 41.2738L39.0396 41.6537L39.0317 41.6752L39.0259 41.6898L39.019 41.7035C38.855 42.0694 38.5856 42.3746 38.2505 42.5853C37.9167 42.7952 37.5299 42.9034 37.1382 42.9027V42.9037H37.0659L37.0464 42.9027C36.6365 42.8863 36.2375 42.7492 35.9038 42.5052C35.5696 42.2609 35.3147 41.919 35.1821 41.5209V41.5199L31.7192 31.3646L31.7202 31.3636C31.5977 31.0043 31.5804 30.6182 31.6724 30.2494L31.7114 30.1127C31.8143 29.7985 31.9943 29.516 32.2319 29.2885C32.5032 29.0288 32.8401 28.8499 33.2026 28.767Z" fill="#ADD6FF" stroke="white" style="fill:#ADD6FF;fill:color(display-p3 0.6800 0.8400 1.0000);fill-opacity:1;stroke:white;stroke-opacity:1;" stroke-width="2"/>
<path d="M90.1676 22.1755L90.2694 20.8597H87.0386V22.7359H96.3495V25.9036H75.7942V22.7359H82.3831V20.8597H77.2697V17.96H90.4984L90.6001 16.5955H77.3206V13.4766H94.9758L94.2889 22.1755H90.1676ZM90.8291 34.2858V30.2165H77.3206V27.0976H94.9503V34.2858H90.8291Z" fill="#1284FF" style="fill:#1284FF;fill:color(display-p3 0.0705 0.5163 0.9985);fill-opacity:1;"/>
<path d="M73.3674 24.1493H69.2461V13.3792H73.3674V24.1493ZM66.8294 16.6199H64.1836L66.6004 23.8569H62.8608C62.1739 21.737 61.5888 19.4952 60.7238 17.424C60.5966 17.7895 60.4694 18.1794 60.3168 18.5205L57.8491 23.93H53.2954L56.7552 16.6199H53.5752V13.4035H66.8294V16.6199ZM73.3674 34.2858H55.3052V25.0265H59.4264V26.5128H69.2461V25.0265H73.3674V34.2858ZM69.2461 31.1669V29.6318H59.4264V31.1669H69.2461Z" fill="#1284FF" style="fill:#1284FF;fill:color(display-p3 0.0705 0.5163 0.9985);fill-opacity:1;"/>
</svg>
