<svg width="50" height="51" viewBox="0 0 50 51" fill="none" xmlns="http://www.w3.org/2000/svg">
<g clip-path="url(#clip0_333_9142)">
<path d="M12.9064 45.5375C8.86754 47.2343 6.84809 48.0826 5.58839 47.6761C4.49559 47.3235 3.63902 46.4669 3.28637 45.3741C2.87986 44.1144 3.72823 42.0949 5.42497 38.056L15.6936 13.6128L37.3497 35.2689L12.9064 45.5375Z" fill="#49A3FD" style="fill:#49A3FD;fill:color(display-p3 0.2872 0.6400 0.9928);fill-opacity:1;"/>
<path d="M37.8418 34.9024C35.9821 36.762 29.5933 33.3883 23.572 27.367C17.5506 21.3456 14.1769 14.9568 16.0365 13.0972C17.8962 11.2375 24.285 14.6113 30.3063 20.6326C36.3277 26.654 39.7014 33.0428 37.8418 34.9024Z" fill="url(#paint0_linear_333_9142)" style=""/>
<path d="M44.9565 21.7976C44.7815 21.1638 45.1535 20.5082 45.7873 20.3332L46.9348 20.0164C47.5686 19.8415 48.2242 20.2134 48.3992 20.8472L48.716 21.9947C48.8909 22.6285 48.519 23.2841 47.8852 23.4591L46.7377 23.7759C46.1039 23.9508 45.4483 23.5789 45.2733 22.9451L44.9565 21.7976Z" fill="#FF5F9E" style="fill:#FF5F9E;fill:color(display-p3 1.0000 0.3733 0.6197);fill-opacity:1;"/>
<path d="M31.873 26.1482C34.1433 25.0248 39.7444 23.8282 45.4232 27.0687C46.2795 27.5576 46.5772 28.6484 46.0884 29.5048C45.5996 30.3611 44.5088 30.6588 43.6523 30.1701C39.2008 27.6301 34.8806 28.6442 33.4567 29.3488C32.5728 29.7862 31.502 29.4243 31.0646 28.5404C30.6273 27.6565 30.9891 26.5856 31.873 26.1482Z" fill="#FFA84D" style="fill:#FFA84D;fill:color(display-p3 1.0000 0.6588 0.3020);fill-opacity:1;"/>
<path d="M25.4751 15.4232C26.008 13.6583 26.3384 11.3019 25.3238 9.21298C24.8929 8.32586 23.8247 7.9558 22.9376 8.38667C22.0507 8.81757 21.6807 9.88585 22.1113 10.7728C22.5389 11.6533 22.4966 12.9336 22.0562 14.3917C21.6291 15.8055 20.9337 17.031 20.5696 17.5339C19.9911 18.3327 20.1695 19.4499 20.9682 20.0284C21.7668 20.6067 22.883 20.4281 23.4615 19.6299C24.0505 18.8166 24.9287 17.232 25.4751 15.4232Z" fill="#83B4FF" style="fill:#83B4FF;fill:color(display-p3 0.5125 0.7075 1.0000);fill-opacity:1;"/>
<path d="M39.6962 13.9209C41.4663 13.0816 43.4267 13.8257 45.2915 15.424C46.0403 16.0659 46.127 17.1935 45.4851 17.9423C44.8433 18.691 43.7156 18.7777 42.9669 18.1359C42.2361 17.5096 41.7387 17.2691 41.4578 17.187C41.3231 17.1477 41.2512 17.1467 41.2226 17.1502C41.206 17.1628 41.1591 17.206 41.0962 17.3141C41.0208 17.4437 40.9605 17.6093 40.9229 17.7755C40.8565 19.6956 40.1132 21.3883 38.3574 21.916C36.8333 22.374 35.3637 21.6508 34.5468 20.9015L34.5391 20.8952C34.2971 20.6707 33.9973 20.3325 33.8023 20.123C33.565 19.868 33.3328 19.6321 33.0885 19.4258C32.6607 19.0647 32.319 18.9028 32.0251 18.867C31.968 18.9722 31.8909 19.156 31.8218 19.4452C31.6297 20.2492 31.625 21.3033 31.6983 22.0342C31.7966 23.0151 31.0815 23.89 30.1006 23.9888C29.1195 24.0873 28.2436 23.372 28.1448 22.391C28.0486 21.4323 28.0309 19.9444 28.3483 18.6154C28.5062 17.9545 28.7799 17.1877 29.2906 16.5478C29.8447 15.8538 30.6791 15.3202 31.7666 15.2887L32.0614 15.2887C33.5143 15.3384 34.64 16.0602 35.3934 16.6963C35.8035 17.0425 36.1504 17.404 36.4169 17.6905C36.719 18.0151 36.8488 18.1642 36.9605 18.269C37.0397 18.3416 37.1415 18.404 37.2377 18.4438C37.2887 18.2913 37.3521 18.0121 37.3576 17.5466L37.359 17.4057L37.3824 17.2663C37.545 16.3171 38.1185 14.6691 39.6962 13.9209Z" fill="#FF3C72" style="fill:#FF3C72;fill:color(display-p3 1.0000 0.2353 0.4471);fill-opacity:1;"/>
<path d="M15.328 6.30852C15.4158 5.92393 15.7988 5.68332 16.1834 5.77112L17.5557 6.08441C17.9403 6.17221 18.1809 6.55516 18.0931 6.93975L17.7798 8.31205C17.692 8.69665 17.309 8.93725 16.9244 8.84945L15.5521 8.53616C15.1675 8.44837 14.9269 8.06541 15.0147 7.68082L15.328 6.30852Z" fill="#F2ED6F" style="fill:#F2ED6F;fill:color(display-p3 0.9490 0.9294 0.4353);fill-opacity:1;"/>
<path d="M29.8824 7.43268C30.4562 7.11168 31.1816 7.31661 31.5026 7.8904L32.0838 8.92935C32.4048 9.50314 32.1999 10.2285 31.6261 10.5495L30.5871 11.1307C30.0133 11.4517 29.2879 11.2468 28.9669 10.673L28.3857 9.63408C28.0647 9.06028 28.2696 8.33491 28.8434 8.01391L29.8824 7.43268Z" fill="#83B4FF" style="fill:#83B4FF;fill:color(display-p3 0.5125 0.7075 1.0000);fill-opacity:1;"/>
<path d="M41.3833 35.4509C41.6935 34.5147 42.7038 34.0072 43.64 34.3173C44.5762 34.6274 45.0837 35.6377 44.7736 36.5739C44.4635 37.5101 43.4532 38.0176 42.517 37.7075C41.5808 37.3974 41.0732 36.3871 41.3833 35.4509Z" fill="#FFCB30" style="fill:#FFCB30;fill:color(display-p3 1.0000 0.7971 0.1882);fill-opacity:1;"/>
<path d="M19.0794 24.5715C19.3895 23.6353 20.3998 23.1278 21.336 23.4379C22.2722 23.748 22.7797 24.7583 22.4696 25.6945C22.1595 26.6307 21.1492 27.1383 20.213 26.8282C19.2768 26.518 18.7692 25.5077 19.0794 24.5715Z" fill="#F85077" style="fill:#F85077;fill:color(display-p3 0.9741 0.3151 0.4659);fill-opacity:1;"/>
<path d="M6.37857 16.7895C6.76105 15.6349 8.00717 15.0089 9.16184 15.3914C10.3165 15.7739 10.9425 17.02 10.56 18.1747C10.1775 19.3293 8.9314 19.9553 7.77673 19.5728C6.62206 19.1903 5.99608 17.9442 6.37857 16.7895Z" fill="#FF95CD" style="fill:#FF95CD;fill:color(display-p3 1.0000 0.5826 0.8041);fill-opacity:1;"/>
<path d="M30.5179 42.1915C30.7247 41.5673 31.3982 41.229 32.0224 41.4357L33.1524 41.8101C33.7766 42.0168 34.1149 42.6904 33.9082 43.3145L33.5338 44.4446C33.3271 45.0687 32.6535 45.4071 32.0294 45.2003L30.8993 44.826C30.2752 44.6192 29.9368 43.9457 30.1436 43.3215L30.5179 42.1915Z" fill="#BD5EF7" style="fill:#BD5EF7;fill:color(display-p3 0.7417 0.3694 0.9680);fill-opacity:1;"/>
</g>
<defs>
<linearGradient id="paint0_linear_333_9142" x1="35.7758" y1="17.3885" x2="19.637" y2="46.1072" gradientUnits="userSpaceOnUse">
<stop stop-color="#1D69B9" style="stop-color:#1D69B9;stop-color:color(display-p3 0.1157 0.4100 0.7245);stop-opacity:1;"/>
<stop offset="1" stop-color="#061841" style="stop-color:#061841;stop-color:color(display-p3 0.0252 0.0942 0.2552);stop-opacity:1;"/>
</linearGradient>
<clipPath id="clip0_333_9142">
<rect width="50" height="50" fill="white" style="fill:white;fill-opacity:1;" transform="translate(0 0.85022)"/>
</clipPath>
</defs>
</svg>
