<svg width="54" height="54" viewBox="0 0 54 54" fill="none" xmlns="http://www.w3.org/2000/svg">
<circle cx="27" cy="27" r="21.5" fill="white" stroke="#DDDDDD" style="fill:white;fill-opacity:1;stroke:#DDDDDD;stroke:color(display-p3 0.8676 0.8676 0.8676);stroke-opacity:1;"/>
<mask id="mask0_53_1495" style="mask-type:alpha" maskUnits="userSpaceOnUse" x="6" y="6" width="43" height="43">
<circle cx="27.55" cy="27.55" r="20.95" fill="white" stroke="#DDDDDD" style="fill:white;fill-opacity:1;stroke:#DDDDDD;stroke:color(display-p3 0.8676 0.8676 0.8676);stroke-opacity:1;"/>
</mask>
<g mask="url(#mask0_53_1495)">
<path d="M8.16101 40.3674C15.0334 37.4498 20.112 31.4244 21.8124 24.137C22.3749 21.726 21.3171 19.2281 19.1942 17.9543L18.6229 17.6116C16.451 16.3085 13.7313 16.3362 11.5868 17.6838C9.4359 19.0356 8.61307 21.7998 9.64734 24.1292C11.4555 28.2004 11.4783 32.8972 9.66882 36.9719L8.16101 40.3674Z" fill="#D9D9D9" stroke="#BBBBBB" style="fill:#D9D9D9;fill:color(display-p3 0.8510 0.8510 0.8510);fill-opacity:1;stroke:#BBBBBB;stroke:color(display-p3 0.7337 0.7337 0.7337);stroke-opacity:1;"/>
<path d="M45.4656 40.3674C38.5932 37.4498 33.5146 31.4244 31.8142 24.137C31.2517 21.726 32.3095 19.2281 34.4324 17.9543L35.0037 17.6116C37.1756 16.3085 39.8952 16.3362 42.0398 17.6838C44.1907 19.0356 45.0135 21.7998 43.9792 24.1292C42.1711 28.2004 42.1483 32.8972 43.9578 36.9719L45.4656 40.3674Z" fill="#D9D9D9" stroke="#BBBBBB" style="fill:#D9D9D9;fill:color(display-p3 0.8510 0.8510 0.8510);fill-opacity:1;stroke:#BBBBBB;stroke:color(display-p3 0.7337 0.7337 0.7337);stroke-opacity:1;"/>
<rect x="13.8924" y="15.0165" width="26.2429" height="29.8753" rx="13.1215" fill="#F2F2F2" stroke="#BBBBBB" style="fill:#F2F2F2;fill:color(display-p3 0.9490 0.9490 0.9490);fill-opacity:1;stroke:#BBBBBB;stroke:color(display-p3 0.7337 0.7337 0.7337);stroke-opacity:1;"/>
<mask id="path-6-inside-1_53_1495" fill="white">
<path d="M26.7114 12.7001C34.4011 12.7001 40.6353 18.9342 40.6353 26.6239V27.4257C40.6353 28.3282 40.5473 29.2106 40.3833 30.0653C35.2415 29.214 28.4183 27.4562 25.3081 26.2177C26.0865 27.2382 26.4713 28.4411 24.98 28.9393C21.0746 30.244 17.204 28.8077 13.7993 28.1005C13.4627 27.82 13.1244 27.5881 12.7876 27.3934V26.6239C12.7876 18.9342 19.0217 12.7001 26.7114 12.7001Z"/>
</mask>
<path d="M26.7114 12.7001C34.4011 12.7001 40.6353 18.9342 40.6353 26.6239V27.4257C40.6353 28.3282 40.5473 29.2106 40.3833 30.0653C35.2415 29.214 28.4183 27.4562 25.3081 26.2177C26.0865 27.2382 26.4713 28.4411 24.98 28.9393C21.0746 30.244 17.204 28.8077 13.7993 28.1005C13.4627 27.82 13.1244 27.5881 12.7876 27.3934V26.6239C12.7876 18.9342 19.0217 12.7001 26.7114 12.7001Z" fill="#E2E2E2" style="fill:#E2E2E2;fill:color(display-p3 0.8875 0.8875 0.8875);fill-opacity:1;"/>
<path d="M26.7114 12.7001L26.7114 11.7001H26.7114V12.7001ZM40.3833 30.0653L40.22 31.0519L41.1817 31.2111L41.3654 30.2538L40.3833 30.0653ZM25.3081 26.2177L25.6781 25.2886L22.3229 23.9525L24.513 26.8241L25.3081 26.2177ZM24.98 28.9393L25.2968 29.8878L25.2969 29.8878L24.98 28.9393ZM13.7993 28.1005L13.1592 28.8687L13.3512 29.0287L13.5959 29.0796L13.7993 28.1005ZM12.7876 27.3934H11.7876V27.9704L12.2872 28.2592L12.7876 27.3934ZM26.7114 12.7001L26.7114 13.7001C33.8489 13.7001 39.6353 19.4865 39.6353 26.6239H40.6353H41.6353C41.6353 18.3819 34.9534 11.7001 26.7114 11.7001L26.7114 12.7001ZM40.6353 26.6239H39.6353V27.4257H40.6353H41.6353V26.6239H40.6353ZM40.6353 27.4257H39.6353C39.6353 28.263 39.5537 29.0824 39.4012 29.8768L40.3833 30.0653L41.3654 30.2538C41.541 29.3389 41.6353 28.3933 41.6353 27.4257H40.6353ZM40.3833 30.0653L40.5466 29.0787C35.4452 28.2341 28.6981 26.4912 25.6781 25.2886L25.3081 26.2177L24.9381 27.1467C28.1385 28.4211 35.0378 30.1939 40.22 31.0519L40.3833 30.0653ZM25.3081 26.2177L24.513 26.8241C24.6769 27.039 24.8039 27.2429 24.8874 27.4235C24.9732 27.6087 24.9944 27.7287 24.9953 27.7888C24.9956 27.8148 24.9922 27.8229 24.9932 27.8196C24.9947 27.8149 24.997 27.8128 24.9937 27.8169C24.9861 27.8262 24.915 27.9067 24.6631 27.9909L24.98 28.9393L25.2969 29.8878C25.7906 29.7228 26.2306 29.4661 26.546 29.0779C26.8729 28.6755 27.0016 28.2105 26.9951 27.7599C26.9832 26.9358 26.5239 26.1627 26.1032 25.6112L25.3081 26.2177ZM24.98 28.9393L24.6631 27.9909C22.9157 28.5746 21.1464 28.5569 19.3513 28.2856C17.4876 28.0039 15.8313 27.5012 14.0027 27.1214L13.7993 28.1005L13.5959 29.0796C15.172 29.407 17.1533 29.9761 19.0524 30.2631C21.0202 30.5606 23.1388 30.6087 25.2968 29.8878L24.98 28.9393ZM13.7993 28.1005L14.4395 27.3322C14.0574 27.0139 13.6721 26.7496 13.288 26.5277L12.7876 27.3934L12.2872 28.2592C12.5767 28.4266 12.868 28.6261 13.1592 28.8687L13.7993 28.1005ZM12.7876 27.3934H13.7876V26.6239H12.7876H11.7876V27.3934H12.7876ZM12.7876 26.6239H13.7876C13.7876 19.4864 19.574 13.7001 26.7114 13.7001V12.7001V11.7001C18.4694 11.7001 11.7876 18.3819 11.7876 26.6239H12.7876Z" fill="#BBBBBB" style="fill:#BBBBBB;fill:color(display-p3 0.7337 0.7337 0.7337);fill-opacity:1;" mask="url(#path-6-inside-1_53_1495)"/>
<rect x="22.4736" y="30.8619" width="1.8162" height="3.63239" rx="0.908098" fill="#8A8A8A" style="fill:#8A8A8A;fill:color(display-p3 0.5413 0.5413 0.5413);fill-opacity:1;"/>
<rect x="29.7382" y="30.8619" width="1.8162" height="3.63239" rx="0.908098" fill="#8A8A8A" style="fill:#8A8A8A;fill:color(display-p3 0.5413 0.5413 0.5413);fill-opacity:1;"/>
<path d="M24.2896 38.1265C25.6517 39.9427 28.376 39.9427 29.7381 38.1265" stroke="#8A8A8A" style="stroke:#8A8A8A;stroke:color(display-p3 0.5413 0.5413 0.5413);stroke-opacity:1;" stroke-linecap="round" stroke-linejoin="round"/>
<path d="M20.657 48.5698L21.5651 57.6508L26.1056 52.6975" stroke="#CCCCCC" style="stroke:#CCCCCC;stroke:color(display-p3 0.7983 0.7983 0.7983);stroke-opacity:1;" stroke-linecap="round" stroke-linejoin="round"/>
<path d="M33.3704 48.5698L32.4623 57.6508L27.9218 52.6975" stroke="#CCCCCC" style="stroke:#CCCCCC;stroke:color(display-p3 0.7983 0.7983 0.7983);stroke-opacity:1;" stroke-linecap="round" stroke-linejoin="round"/>
</g>
</svg>
