<svg width="38" height="38" viewBox="0 0 38 38" fill="none" xmlns="http://www.w3.org/2000/svg">
<circle cx="18.9999" cy="18.9999" r="18.4999" fill="white" stroke="#DDDDDD" style="fill:white;fill-opacity:1;stroke:#DDDDDD;stroke:color(display-p3 0.8676 0.8676 0.8676);stroke-opacity:1;"/>
<mask id="mask0_53_1557" style="mask-type:alpha" maskUnits="userSpaceOnUse" x="0" y="0" width="38" height="38">
<circle cx="19.4751" cy="19.4751" r="18.0249" fill="white" stroke="#DDDDDD" style="fill:white;fill-opacity:1;stroke:#DDDDDD;stroke:color(display-p3 0.8676 0.8676 0.8676);stroke-opacity:1;"/>
</mask>
<g mask="url(#mask0_53_1557)">
<rect x="7.74799" y="8.71893" width="22.5279" height="25.6649" rx="11.2639" fill="#F2F2F2" stroke="#BBBBBB" style="fill:#F2F2F2;fill:color(display-p3 0.9490 0.9490 0.9490);fill-opacity:1;stroke:#BBBBBB;stroke:color(display-p3 0.7337 0.7337 0.7337);stroke-opacity:1;"/>
<mask id="path-4-inside-1_53_1557" fill="white">
<path d="M18.7511 6.65002C25.392 6.65022 30.7755 12.0344 30.7755 18.6754V19.3678C30.7755 19.5675 30.7695 19.7661 30.7599 19.9635C28.7149 20.6201 25.2433 20.9 19.4747 20.9C11.8645 20.9 8.29193 20.6509 6.74622 20.0729C6.73273 19.8396 6.72571 19.6045 6.72571 19.3678V18.6754C6.72571 12.0343 12.11 6.65002 18.7511 6.65002Z"/>
</mask>
<path d="M18.7511 6.65002C25.392 6.65022 30.7755 12.0344 30.7755 18.6754V19.3678C30.7755 19.5675 30.7695 19.7661 30.7599 19.9635C28.7149 20.6201 25.2433 20.9 19.4747 20.9C11.8645 20.9 8.29193 20.6509 6.74622 20.0729C6.73273 19.8396 6.72571 19.6045 6.72571 19.3678V18.6754C6.72571 12.0343 12.11 6.65002 18.7511 6.65002Z" fill="#E2E2E2" style="fill:#E2E2E2;fill:color(display-p3 0.8875 0.8875 0.8875);fill-opacity:1;"/>
<path d="M18.7511 6.65002L18.7511 5.65002H18.7511V6.65002ZM30.7599 19.9635L31.0656 20.9156L31.725 20.7039L31.7587 20.0122L30.7599 19.9635ZM19.4747 20.9L19.4747 21.9H19.4747V20.9ZM6.74622 20.0729L5.74788 20.1306L5.7855 20.7813L6.39598 21.0095L6.74622 20.0729ZM18.7511 6.65002L18.7511 7.65002C24.8397 7.6502 29.7755 12.5866 29.7755 18.6754H30.7755H31.7755C31.7755 11.4822 25.9444 5.65023 18.7511 5.65002L18.7511 6.65002ZM30.7755 18.6754H29.7755V19.3678H30.7755H31.7755V18.6754H30.7755ZM30.7755 19.3678H29.7755C29.7755 19.5477 29.7701 19.7296 29.7611 19.9148L30.7599 19.9635L31.7587 20.0122C31.7689 19.8026 31.7755 19.5874 31.7755 19.3678H30.7755ZM30.7599 19.9635L30.4542 19.0114C28.5799 19.6131 25.261 19.9 19.4747 19.9V20.9V21.9C25.2255 21.9 28.8498 21.627 31.0656 20.9156L30.7599 19.9635ZM19.4747 20.9L19.4747 19.9C15.6757 19.9 12.9063 19.8377 10.9022 19.7054C8.8699 19.5712 7.71987 19.3693 7.09645 19.1362L6.74622 20.0729L6.39598 21.0095C7.31827 21.3544 8.7274 21.5661 10.7704 21.701C12.8416 21.8378 15.6635 21.9 19.4747 21.9L19.4747 20.9ZM6.74622 20.0729L7.74455 20.0152C7.73214 19.8006 7.72571 19.5847 7.72571 19.3678H6.72571H5.72571C5.72571 19.6242 5.73331 19.8786 5.74788 20.1306L6.74622 20.0729ZM6.72571 19.3678H7.72571V18.6754H6.72571H5.72571V19.3678H6.72571ZM6.72571 18.6754H7.72571C7.72571 12.5866 12.6623 7.65002 18.7511 7.65002V6.65002V5.65002C11.5577 5.65002 5.72571 11.482 5.72571 18.6754H6.72571Z" fill="#BBBBBB" style="fill:#BBBBBB;fill:color(display-p3 0.7337 0.7337 0.7337);fill-opacity:1;" mask="url(#path-4-inside-1_53_1557)"/>
<rect x="15.0909" y="22.3352" width="1.56853" height="3.13705" rx="0.784263" fill="#8A8A8A" style="fill:#8A8A8A;fill:color(display-p3 0.5413 0.5413 0.5413);fill-opacity:1;"/>
<rect x="21.3649" y="22.3352" width="1.56853" height="3.13705" rx="0.784263" fill="#8A8A8A" style="fill:#8A8A8A;fill:color(display-p3 0.5413 0.5413 0.5413);fill-opacity:1;"/>
<path d="M16.6592 28.6092C17.8356 30.1777 20.1884 30.1777 21.3648 28.6092" stroke="#8A8A8A" style="stroke:#8A8A8A;stroke:color(display-p3 0.5413 0.5413 0.5413);stroke-opacity:1;" stroke-linecap="round" stroke-linejoin="round"/>
<path d="M13.522 37.6284L14.3062 45.471L18.2275 41.1932" stroke="#CCCCCC" style="stroke:#CCCCCC;stroke:color(display-p3 0.7983 0.7983 0.7983);stroke-opacity:1;" stroke-linecap="round" stroke-linejoin="round"/>
<path d="M24.5016 37.6284L23.7174 45.471L19.7961 41.1932" stroke="#CCCCCC" style="stroke:#CCCCCC;stroke:color(display-p3 0.7983 0.7983 0.7983);stroke-opacity:1;" stroke-linecap="round" stroke-linejoin="round"/>
<path d="M13.7755 18.5499C16.2436 18.55 18.4636 18.7611 20.0538 19.0958C20.8529 19.2641 21.4667 19.4585 21.8682 19.6583C22.0694 19.7585 22.192 19.8475 22.2579 19.9152C22.2703 19.928 22.2775 19.9407 22.2842 19.9493C22.2775 19.9581 22.2707 19.9713 22.2579 19.9845C22.192 20.0522 22.0697 20.142 21.8682 20.2423C21.4667 20.4422 20.8529 20.6356 20.0538 20.8038C18.4636 21.1386 16.2436 21.3497 13.7755 21.3497C11.3072 21.3497 9.08639 21.1386 7.49615 20.8038C6.69709 20.6356 6.08323 20.4422 5.6817 20.2423C5.48022 20.142 5.3579 20.0522 5.29205 19.9845C5.27899 19.9711 5.27152 19.9582 5.26471 19.9493C5.27148 19.9406 5.27934 19.9282 5.29205 19.9152C5.35789 19.8475 5.4805 19.7585 5.6817 19.6583C6.08324 19.4585 6.69707 19.2641 7.49615 19.0958C9.08639 18.761 11.3072 18.5499 13.7755 18.5499Z" fill="#D9D9D9" stroke="#ADADAD" style="fill:#D9D9D9;fill:color(display-p3 0.8510 0.8510 0.8510);fill-opacity:1;stroke:#ADADAD;stroke:color(display-p3 0.6798 0.6798 0.6798);stroke-opacity:1;"/>
<path d="M19.0004 7.15002C19.4272 7.15011 19.7942 7.28054 20.0434 7.46741C20.2924 7.65419 20.3998 7.87404 20.3998 8.07483C20.3998 8.27564 20.2924 8.49543 20.0434 8.68225C19.7942 8.86915 19.4272 8.99955 19.0004 8.99963C18.5735 8.99963 18.2058 8.8692 17.9565 8.68225C17.7075 8.49545 17.6 8.27561 17.6 8.07483C17.6001 7.87405 17.7075 7.65418 17.9565 7.46741C18.2058 7.28045 18.5735 7.15002 19.0004 7.15002Z" fill="#D9D9D9" stroke="#ADADAD" style="fill:#D9D9D9;fill:color(display-p3 0.8510 0.8510 0.8510);fill-opacity:1;stroke:#ADADAD;stroke:color(display-p3 0.6798 0.6798 0.6798);stroke-opacity:1;"/>
</g>
</svg>
