<svg width="18" height="18" viewBox="0 0 18 18" fill="none" xmlns="http://www.w3.org/2000/svg">
<path d="M11.5643 13.755C11.6196 13.8399 11.651 13.9381 11.6552 14.0393C11.6593 14.1406 11.636 14.2411 11.5877 14.3302C11.5395 14.4193 11.4681 14.4937 11.381 14.5455C11.294 14.5974 11.1945 14.6247 11.0932 14.6248H0.719292C0.617968 14.6247 0.51853 14.5974 0.431482 14.5455C0.344433 14.4937 0.273008 14.4193 0.224752 14.3302C0.176495 14.2411 0.1532 14.1406 0.157327 14.0393C0.161454 13.9381 0.19285 13.8399 0.248198 13.755C1.03999 12.5362 2.20464 11.6061 3.56835 11.1035C2.81446 10.6016 2.2421 9.87043 1.93591 9.01808C1.62971 8.16573 1.60595 7.23747 1.86812 6.37056C2.13029 5.50366 2.66449 4.74414 3.39171 4.20433C4.11893 3.66451 5.00057 3.37305 5.90624 3.37305C6.81192 3.37305 7.69356 3.66451 8.42078 4.20433C9.148 4.74414 9.6822 5.50366 9.94437 6.37056C10.2065 7.23747 10.1828 8.16573 9.87658 9.01808C9.57039 9.87043 8.99803 10.6016 8.24413 11.1035C9.60785 11.6061 10.7725 12.5362 11.5643 13.755ZM17.7455 13.7444C16.9535 12.5308 15.7914 11.6047 14.4316 11.1035C15.3216 10.504 15.9497 9.58785 16.1881 8.54156C16.4264 7.49527 16.2571 6.39748 15.7146 5.47164C15.172 4.54579 14.2971 3.86149 13.2678 3.55801C12.2385 3.25454 11.1323 3.3547 10.1742 3.83812C10.1376 3.85703 10.1056 3.88377 10.0804 3.91644C10.0552 3.94911 10.0376 3.9869 10.0287 4.02716C10.0197 4.06741 10.0198 4.10913 10.0288 4.14937C10.0378 4.1896 10.0555 4.22737 10.0807 4.25999C10.7931 5.14861 11.2022 6.24199 11.2481 7.37998C11.2941 8.51797 10.9744 9.64076 10.3359 10.5839C10.2947 10.6455 10.2794 10.721 10.2935 10.7938C10.3076 10.8666 10.3499 10.9309 10.4112 10.9727C11.2436 11.5537 11.9562 12.2897 12.51 13.1405C12.7333 13.4825 12.8246 13.8941 12.7666 14.2985C12.7601 14.3387 12.7624 14.3799 12.7734 14.4191C12.7843 14.4584 12.8037 14.4948 12.8301 14.5258C12.8565 14.5568 12.8894 14.5818 12.9264 14.5989C12.9634 14.6159 13.0036 14.6248 13.0444 14.6248H17.2842C17.4081 14.6248 17.5285 14.584 17.6268 14.5086C17.725 14.4332 17.7957 14.3274 17.8277 14.2078C17.8473 14.1291 17.8501 14.0472 17.8359 13.9674C17.8217 13.8875 17.7909 13.8116 17.7455 13.7444Z" fill="url(#paint0_linear_523_15625)" style=""/>
<defs>
<linearGradient id="paint0_linear_523_15625" x1="1.92566" y1="4.71254" x2="18.8429" y2="9.46231" gradientUnits="userSpaceOnUse">
<stop stop-color="#49A3FD" style="stop-color:#49A3FD;stop-color:color(display-p3 0.2872 0.6400 0.9928);stop-opacity:1;"/>
<stop offset="1" stop-color="#79C7FF" style="stop-color:#79C7FF;stop-color:color(display-p3 0.4749 0.7812 1.0000);stop-opacity:1;"/>
</linearGradient>
</defs>
</svg>
